<svg width="16" height="16" viewBox="0 0 16 16" fill="none" xmlns="http://www.w3.org/2000/svg">
<path d="M12.6666 2.66536H11.3333V1.9987C11.3333 1.82189 11.263 1.65232 11.138 1.52729C11.013 1.40227 10.8434 1.33203 10.6666 1.33203C10.4898 1.33203 10.3202 1.40227 10.1952 1.52729C10.0702 1.65232 9.99992 1.82189 9.99992 1.9987V2.66536H5.99992V1.9987C5.99992 1.82189 5.92968 1.65232 5.80466 1.52729C5.67963 1.40227 5.51006 1.33203 5.33325 1.33203C5.15644 1.33203 4.98687 1.40227 4.86185 1.52729C4.73682 1.65232 4.66658 1.82189 4.66658 1.9987V2.66536H3.33325C2.80282 2.66536 2.29411 2.87608 1.91904 3.25115C1.54397 3.62622 1.33325 4.13493 1.33325 4.66536V12.6654C1.33325 13.1958 1.54397 13.7045 1.91904 14.0796C2.29411 14.4546 2.80282 14.6654 3.33325 14.6654H12.6666C13.197 14.6654 13.7057 14.4546 14.0808 14.0796C14.4559 13.7045 14.6666 13.1958 14.6666 12.6654V4.66536C14.6666 4.13493 14.4559 3.62622 14.0808 3.25115C13.7057 2.87608 13.197 2.66536 12.6666 2.66536ZM13.3333 12.6654C13.3333 12.8422 13.263 13.0117 13.138 13.1368C13.013 13.2618 12.8434 13.332 12.6666 13.332H3.33325C3.15644 13.332 2.98687 13.2618 2.86185 13.1368C2.73682 13.0117 2.66659 12.8422 2.66659 12.6654V7.9987H13.3333V12.6654ZM13.3333 6.66536H2.66659V4.66536C2.66659 4.48855 2.73682 4.31898 2.86185 4.19396C2.98687 4.06894 3.15644 3.9987 3.33325 3.9987H4.66658V4.66536C4.66658 4.84218 4.73682 5.01174 4.86185 5.13677C4.98687 5.26179 5.15644 5.33203 5.33325 5.33203C5.51006 5.33203 5.67963 5.26179 5.80466 5.13677C5.92968 5.01174 5.99992 4.84218 5.99992 4.66536V3.9987H9.99992V4.66536C9.99992 4.84218 10.0702 5.01174 10.1952 5.13677C10.3202 5.26179 10.4898 5.33203 10.6666 5.33203C10.8434 5.33203 11.013 5.26179 11.138 5.13677C11.263 5.01174 11.3333 4.84218 11.3333 4.66536V3.9987H12.6666C12.8434 3.9987 13.013 4.06894 13.138 4.19396C13.263 4.31898 13.3333 4.48855 13.3333 4.66536V6.66536Z" fill="#8B98A4"/>
</svg>
