<svg width="18" height="18" viewBox="0 0 18 18" fill="none" xmlns="http://www.w3.org/2000/svg">
<path fill-rule="evenodd" clip-rule="evenodd" d="M9.00097 10.0606L13.2437 14.3034C13.3852 14.44 13.5746 14.5156 13.7713 14.5139C13.9679 14.5122 14.156 14.4333 14.2951 14.2942C14.4341 14.1552 14.513 13.9671 14.5147 13.7704C14.5164 13.5738 14.4408 13.3843 14.3042 13.2429L10.0615 9.00011L14.3042 4.75736C14.4408 4.61591 14.5164 4.42646 14.5147 4.22981C14.513 4.03316 14.4341 3.84505 14.2951 3.706C14.156 3.56694 13.9679 3.48807 13.7713 3.48636C13.5746 3.48465 13.3852 3.56024 13.2437 3.69686L9.00097 7.93961L4.75822 3.69686C4.61613 3.56362 4.42778 3.49089 4.23301 3.49405C4.03825 3.49721 3.85236 3.57602 3.71467 3.71381C3.57699 3.85159 3.49831 4.03754 3.49528 4.2323C3.49226 4.42707 3.56512 4.61537 3.69847 4.75736L7.94047 9.00011L3.69772 13.2429C3.62608 13.312 3.56895 13.3948 3.52964 13.4863C3.49033 13.5778 3.46964 13.6762 3.46878 13.7758C3.46791 13.8754 3.48689 13.9742 3.5246 14.0663C3.56231 14.1585 3.618 14.2422 3.68842 14.3127C3.75884 14.3831 3.84258 14.4388 3.93475 14.4765C4.02692 14.5142 4.12568 14.5332 4.22527 14.5323C4.32485 14.5314 4.42327 14.5107 4.51477 14.4714C4.60627 14.4321 4.68903 14.375 4.75822 14.3034L9.00097 10.0606Z" fill="#778A8D"/>
</svg>
