<svg width="18" height="18" viewBox="0 0 18 18" fill="none" xmlns="http://www.w3.org/2000/svg">
<path d="M11.6365 4.28716C11.7727 4.15091 11.9345 4.04284 12.1125 3.96911C12.2905 3.89537 12.4813 3.85742 12.674 3.85742C12.8667 3.85742 13.0574 3.89537 13.2355 3.96911C13.4135 4.04284 13.5752 4.15091 13.7114 4.28716C13.8477 4.4234 13.9558 4.58514 14.0295 4.76315C14.1032 4.94116 14.1412 5.13195 14.1412 5.32463C14.1412 5.5173 14.1032 5.70809 14.0295 5.8861C13.9558 6.06411 13.8477 6.22586 13.7114 6.3621L6.70852 13.365L3.85547 14.1431L4.63357 11.2901L11.6365 4.28716Z" stroke="#0098B3" stroke-width="1.3" stroke-linecap="round" stroke-linejoin="round"/>
</svg>
