<svg width="87" height="84" viewBox="0 0 87 84" fill="none" xmlns="http://www.w3.org/2000/svg">
<g clip-path="url(#clip0_4585_19629)">
<path d="M55.105 18.8954H31.9152C31.3868 18.896 30.8802 19.1062 30.5065 19.4799C30.1328 19.8536 29.9226 20.3602 29.922 20.8886V72.4281L29.6562 72.5092L23.9674 74.2513C23.6978 74.3335 23.4066 74.3054 23.1577 74.1731C22.9088 74.0408 22.7226 73.8151 22.6399 73.5457L5.71826 18.2721C5.63591 18.0025 5.66398 17.7112 5.7963 17.4623C5.92861 17.2134 6.15434 17.0272 6.42389 16.9446L15.1903 14.2603L40.6046 6.48125L49.371 3.79697C49.5044 3.75591 49.6446 3.74156 49.7836 3.75475C49.9225 3.76793 50.0575 3.80839 50.1808 3.87381C50.3041 3.93922 50.4133 4.02831 50.5022 4.13598C50.591 4.24365 50.6577 4.36777 50.6985 4.50126L55.0239 18.6296L55.105 18.8954Z" fill="#F2F2F2"/>
<path d="M60.1634 18.6259L54.9503 1.59803C54.8636 1.31432 54.7218 1.05047 54.5331 0.821574C54.3443 0.592677 54.1123 0.403214 53.8504 0.264011C53.5884 0.124809 53.3015 0.0385934 53.0062 0.0102957C52.7109 -0.018002 52.4128 0.0121723 52.1292 0.0990912L39.8041 3.8717L14.3912 11.6521L2.06611 15.4261C1.49355 15.6019 1.01414 15.9977 0.733109 16.5266C0.452076 17.0555 0.392381 17.6743 0.567129 18.2472L18.3844 76.4416C18.5263 76.904 18.8128 77.3088 19.2016 77.5965C19.5905 77.8842 20.0614 78.0397 20.5451 78.0402C20.769 78.0403 20.9916 78.0067 21.2055 77.9405L29.6544 75.3546L29.9201 75.2722V74.9944L29.6544 75.0755L21.1271 77.6867C20.6217 77.8407 20.0759 77.7881 19.6093 77.5402C19.1427 77.2923 18.7935 76.8695 18.6382 76.3645L0.822323 18.1688C0.745394 17.9186 0.718583 17.6556 0.743422 17.395C0.768262 17.1344 0.844263 16.8812 0.967078 16.65C1.08989 16.4189 1.25711 16.2142 1.45915 16.0477C1.66119 15.8812 1.89408 15.7562 2.14449 15.6799L14.4696 11.9059L39.8825 4.12684L52.2076 0.352904C52.3976 0.29494 52.595 0.265385 52.7936 0.265199C53.2198 0.266156 53.6345 0.403554 53.9769 0.657267C54.3193 0.91098 54.5715 1.26768 54.6966 1.67511L59.8857 18.6259L59.9681 18.8917H60.2445L60.1634 18.6259Z" fill="#3F3D56"/>
<path d="M16.7677 16.984C16.5116 16.9838 16.2623 16.9015 16.0563 16.7493C15.8504 16.597 15.6987 16.3827 15.6234 16.1379L13.9118 10.5472C13.8658 10.397 13.8498 10.2393 13.8648 10.0829C13.8798 9.92659 13.9255 9.77473 13.9991 9.63603C14.0728 9.49732 14.1731 9.3745 14.2943 9.27455C14.4154 9.17461 14.5551 9.09952 14.7053 9.05356L38.0849 1.89587C38.3882 1.80332 38.7159 1.83489 38.9959 1.98364C39.2759 2.13239 39.4855 2.38618 39.5787 2.68929L41.2903 8.28007C41.3828 8.58336 41.3512 8.91096 41.2024 9.19099C41.0537 9.47102 40.7999 9.68061 40.4969 9.77379L17.1171 16.9315C17.0039 16.9662 16.8862 16.9839 16.7677 16.984Z" fill="#677787"/>
<path d="M25.7397 5.97556C27.2075 5.97556 28.3974 4.78567 28.3974 3.31786C28.3974 1.85005 27.2075 0.660156 25.7397 0.660156C24.2719 0.660156 23.082 1.85005 23.082 3.31786C23.082 4.78567 24.2719 5.97556 25.7397 5.97556Z" fill="#677787"/>
<path d="M25.7376 4.99869C26.6671 4.99869 27.4206 4.24521 27.4206 3.31575C27.4206 2.38629 26.6671 1.63281 25.7376 1.63281C24.8082 1.63281 24.0547 2.38629 24.0547 3.31575C24.0547 4.24521 24.8082 4.99869 25.7376 4.99869Z" fill="white"/>
<path d="M80.5486 77.3626H35.6334C35.334 77.3623 35.0469 77.2432 34.8351 77.0314C34.6234 76.8197 34.5043 76.5326 34.5039 76.2331V22.4147C34.5042 22.1152 34.6234 21.8281 34.8351 21.6164C35.0469 21.4046 35.334 21.2855 35.6334 21.2852H80.5486C80.848 21.2855 81.1351 21.4046 81.3469 21.6164C81.5586 21.8281 81.6777 22.1152 81.6781 22.4147V76.2331C81.6777 76.5326 81.5586 76.8197 81.3469 77.0314C81.1351 77.2432 80.848 77.3623 80.5486 77.3626Z" fill="#E6E6E6"/>
<path d="M59.8876 18.6328H31.9153C31.3164 18.6337 30.7423 18.8719 30.3188 19.2954C29.8954 19.7189 29.6571 20.293 29.6562 20.8919V75.0824L29.922 75.0013V20.8919C29.9227 20.3634 30.1329 19.8568 30.5065 19.4831C30.8802 19.1094 31.3868 18.8992 31.9153 18.8986H59.97L59.8876 18.6328ZM84.272 18.6328H31.9153C31.3164 18.6337 30.7423 18.8719 30.3188 19.2954C29.8954 19.7189 29.6571 20.293 29.6562 20.8919V81.7532C29.6571 82.3521 29.8954 82.9262 30.3188 83.3497C30.7423 83.7731 31.3164 84.0114 31.9153 84.0123H84.272C84.8709 84.0114 85.445 83.7731 85.8685 83.3497C86.2919 82.9262 86.5302 82.3521 86.531 81.7532V20.8919C86.5302 20.293 86.2919 19.7189 85.8685 19.2954C85.445 18.8719 84.8709 18.6337 84.272 18.6328ZM86.2653 81.7532C86.2646 82.2817 86.0544 82.7883 85.6807 83.162C85.3071 83.5356 84.8005 83.7458 84.272 83.7465H31.9153C31.3868 83.7458 30.8802 83.5356 30.5065 83.162C30.1329 82.7883 29.9227 82.2817 29.922 81.7532V20.8919C29.9227 20.3634 30.1329 19.8568 30.5065 19.4831C30.8802 19.1094 31.3868 18.8992 31.9153 18.8986H84.272C84.8005 18.8992 85.3071 19.1094 85.6807 19.4831C86.0544 19.8568 86.2646 20.3634 86.2653 20.8919V81.7532Z" fill="#3F3D56"/>
<path d="M70.3187 24.4772H45.8678C45.5508 24.4768 45.2468 24.3507 45.0226 24.1265C44.7983 23.9023 44.6722 23.5983 44.6719 23.2812V17.4342C44.6722 17.1172 44.7984 16.8132 45.0226 16.589C45.2468 16.3648 45.5508 16.2386 45.8678 16.2383H70.3187C70.6358 16.2386 70.9398 16.3648 71.164 16.589C71.3882 16.8132 71.5143 17.1172 71.5147 17.4342V23.2812C71.5143 23.5983 71.3882 23.9023 71.164 24.1265C70.9398 24.3507 70.6358 24.4768 70.3187 24.4772Z" fill="#677787"/>
<path d="M58.0913 16.6357C59.5591 16.6357 60.749 15.4458 60.749 13.978C60.749 12.5102 59.5591 11.3203 58.0913 11.3203C56.6235 11.3203 55.4336 12.5102 55.4336 13.978C55.4336 15.4458 56.6235 16.6357 58.0913 16.6357Z" fill="#677787"/>
<path d="M58.0914 15.597C58.9855 15.597 59.7102 14.8722 59.7102 13.9782C59.7102 13.0841 58.9855 12.3594 58.0914 12.3594C57.1974 12.3594 56.4727 13.0841 56.4727 13.9782C56.4727 14.8722 57.1974 15.597 58.0914 15.597Z" fill="white"/>
</g>
<defs>
<clipPath id="clip0_4585_19629">
<rect width="86.0612" height="84.0065" fill="white" transform="translate(0.46875)"/>
</clipPath>
</defs>
</svg>
