<svg width="24" height="24" viewBox="0 0 24 24" fill="none" xmlns="http://www.w3.org/2000/svg">
<path d="M22.9961 17.4922C22.9961 18.9509 22.4166 20.3498 21.3852 21.3813C20.3537 22.4127 18.9548 22.9922 17.4961 22.9922C16.0374 22.9922 14.6385 22.4127 13.607 21.3813C12.5756 20.3498 11.9961 18.9509 11.9961 17.4922C11.9961 16.0335 12.5756 14.6346 13.607 13.6031C14.6385 12.5716 16.0374 11.9922 17.4961 11.9922C18.9548 11.9922 20.3537 12.5716 21.3852 13.6031C22.4166 14.6346 22.9961 16.0335 22.9961 17.4922ZM13.4961 17.4922C13.4961 18.5531 13.9175 19.5705 14.6677 20.3206C15.4178 21.0708 16.4352 21.4922 17.4961 21.4922C18.557 21.4922 19.5744 21.0708 20.3245 20.3206C21.0747 19.5705 21.4961 18.5531 21.4961 17.4922C21.4961 16.4313 21.0747 15.4139 20.3245 14.6638C19.5744 13.9136 18.557 13.4922 17.4961 13.4922C16.4352 13.4922 15.4178 13.9136 14.6677 14.6638C13.9175 15.4139 13.4961 16.4313 13.4961 17.4922ZM18.4961 15.4922C18.4961 15.7574 18.3907 16.0118 18.2032 16.1993C18.0157 16.3868 17.7613 16.4922 17.4961 16.4922C17.2309 16.4922 16.9765 16.3868 16.789 16.1993C16.6014 16.0118 16.4961 15.7574 16.4961 15.4922C16.4961 15.227 16.6014 14.9726 16.789 14.7851C16.9765 14.5975 17.2309 14.4922 17.4961 14.4922C17.7613 14.4922 18.0157 14.5975 18.2032 14.7851C18.3907 14.9726 18.4961 15.227 18.4961 15.4922ZM18.2461 17.9922C18.2461 17.7933 18.1671 17.6025 18.0264 17.4619C17.8858 17.3212 17.695 17.2422 17.4961 17.2422C17.2972 17.2422 17.1064 17.3212 16.9658 17.4619C16.8251 17.6025 16.7461 17.7933 16.7461 17.9922V19.7422C16.7461 19.9411 16.8251 20.1319 16.9658 20.2725C17.1064 20.4132 17.2972 20.4922 17.4961 20.4922C17.695 20.4922 17.8858 20.4132 18.0264 20.2725C18.1671 20.1319 18.2461 19.9411 18.2461 19.7422V17.9922Z" fill="black"/>
<path d="M13.3706 15.5L13.9961 14L4.248 13.995C3.6517 13.9953 3.07992 14.2323 2.65836 14.6541C2.23681 15.0758 2 15.6477 2 16.244V16.822C2 17.714 2.318 18.578 2.898 19.257C4.464 21.091 6.85 21.997 9.996 21.997C12 22 14.169 20.963 14.713 20.897C14.3199 20.47 13.9856 19.9925 13.719 19.477C13.485 19.49 12 20.5 9.996 20.497C7.258 20.497 5.292 19.75 4.039 18.283C3.69057 17.8756 3.49908 17.3571 3.499 16.821V16.244C3.499 16.0451 3.57802 15.8543 3.71867 15.7137C3.85932 15.573 4.05009 15.494 4.249 15.494L13.3706 15.5ZM9.996 2C10.6526 2 11.3028 2.12933 11.9094 2.3806C12.516 2.63188 13.0672 3.00017 13.5315 3.46447C13.9958 3.92876 14.3641 4.47995 14.6154 5.08658C14.8667 5.69321 14.996 6.34339 14.996 7C14.996 7.65661 14.8667 8.30679 14.6154 8.91342C14.3641 9.52004 13.9958 10.0712 13.5315 10.5355C13.0672 10.9998 12.516 11.3681 11.9094 11.6194C11.3028 11.8707 10.6526 12 9.996 12C8.66992 12 7.39815 11.4732 6.46047 10.5355C5.52278 9.59785 4.996 8.32608 4.996 7C4.996 5.67392 5.52278 4.40215 6.46047 3.46447C7.39815 2.52678 8.66992 2 9.996 2ZM9.996 3.5C9.53637 3.5 9.08125 3.59053 8.65661 3.76642C8.23197 3.94231 7.84613 4.20012 7.52113 4.52513C7.19612 4.85013 6.93831 5.23597 6.76242 5.66061C6.58653 6.08525 6.496 6.54037 6.496 7C6.496 7.45963 6.58653 7.91475 6.76242 8.33939C6.93831 8.76403 7.19612 9.14987 7.52113 9.47487C7.84613 9.79988 8.23197 10.0577 8.65661 10.2336C9.08125 10.4095 9.53637 10.5 9.996 10.5C10.9243 10.5 11.8145 10.1313 12.4709 9.47487C13.1273 8.8185 13.496 7.92826 13.496 7C13.496 6.07174 13.1273 5.1815 12.4709 4.52513C11.8145 3.86875 10.9243 3.5 9.996 3.5Z" fill="black"/>
</svg>
