<svg width="48" height="48" viewBox="0 0 48 48" fill="none" xmlns="http://www.w3.org/2000/svg">
<rect width="48" height="48" rx="6" fill="#2592CB"/>
<path d="M12 21.3333V18.6667C12 17.9594 12.281 17.2811 12.781 16.781C13.2811 16.281 13.9594 16 14.6667 16H17.3333M12 21.3333C13.7773 21.3333 17.3333 20.2667 17.3333 16M12 21.3333V26.6667M17.3333 16H30.6667M12 26.6667V29.3333C12 30.0406 12.281 30.7189 12.781 31.219C13.2811 31.719 13.9594 32 14.6667 32H17.3333M12 26.6667C13.7773 26.6667 17.3333 27.7333 17.3333 32M36 21.3333V18.6667C36 17.9594 35.719 17.2811 35.219 16.781C34.7189 16.281 34.0406 16 33.3333 16H30.6667M36 21.3333C34.2227 21.3333 30.6667 20.2667 30.6667 16M36 21.3333V26.6667M36 26.6667V29.3333C36 30.0406 35.719 30.7189 35.219 31.219C34.7189 31.719 34.0406 32 33.3333 32H30.6667M36 26.6667C34.2227 26.6667 30.6667 27.7333 30.6667 32M30.6667 32H17.3333" stroke="white" stroke-width="1.5" stroke-linecap="round" stroke-linejoin="round"/>
<path d="M23.9997 26.6673C25.4724 26.6673 26.6663 25.4734 26.6663 24.0007C26.6663 22.5279 25.4724 21.334 23.9997 21.334C22.5269 21.334 21.333 22.5279 21.333 24.0007C21.333 25.4734 22.5269 26.6673 23.9997 26.6673Z" stroke="white" stroke-width="1.5" stroke-linecap="round" stroke-linejoin="round"/>
</svg>
