<svg width="22" height="23" viewBox="0 0 22 23" fill="none" xmlns="http://www.w3.org/2000/svg">
<g clip-path="url(#clip0_1175_15870)">
<path d="M13.7502 4.16602C14.2364 4.16602 14.7027 4.35917 15.0465 4.70299C15.3903 5.0468 15.5835 5.51312 15.5835 5.99935V6.91602H16.9768C17.2516 6.91605 17.5229 6.97785 17.7706 7.09685C18.0182 7.21586 18.236 7.38901 18.4077 7.60352L19.7644 9.30027C20.0248 9.6254 20.1668 10.0295 20.1668 10.4461V14.2493C20.1668 14.7356 19.9737 15.2019 19.6299 15.5457C19.286 15.8895 18.8197 16.0827 18.3335 16.0827C18.3335 16.812 18.0438 17.5115 17.528 18.0272C17.0123 18.543 16.3128 18.8327 15.5835 18.8327C14.8542 18.8327 14.1547 18.543 13.639 18.0272C13.1232 17.5115 12.8335 16.812 12.8335 16.0827H9.16683C9.16683 16.4438 9.0957 16.8014 8.9575 17.1351C8.8193 17.4687 8.61673 17.7719 8.36137 18.0272C8.10601 18.2826 7.80285 18.4852 7.46921 18.6234C7.13556 18.7616 6.77796 18.8327 6.41683 18.8327C6.05569 18.8327 5.6981 18.7616 5.36445 18.6234C5.0308 18.4852 4.72765 18.2826 4.47229 18.0272C4.21692 17.7719 4.01436 17.4687 3.87616 17.1351C3.73796 16.8014 3.66683 16.4438 3.66683 16.0827C3.1806 16.0827 2.71428 15.8895 2.37047 15.5457C2.02665 15.2019 1.8335 14.7356 1.8335 14.2493V5.99935C1.8335 5.51312 2.02665 5.0468 2.37047 4.70299C2.71428 4.35917 3.1806 4.16602 3.66683 4.16602H13.7502ZM6.41683 15.166C6.17371 15.166 5.94056 15.2626 5.76865 15.4345C5.59674 15.6064 5.50016 15.8396 5.50016 16.0827C5.50016 16.3258 5.59674 16.559 5.76865 16.7309C5.94056 16.9028 6.17371 16.9993 6.41683 16.9993C6.65994 16.9993 6.8931 16.9028 7.06501 16.7309C7.23692 16.559 7.3335 16.3258 7.3335 16.0827C7.3335 15.8396 7.23692 15.6064 7.06501 15.4345C6.8931 15.2626 6.65994 15.166 6.41683 15.166ZM15.5835 15.166C15.3404 15.166 15.1072 15.2626 14.9353 15.4345C14.7634 15.6064 14.6668 15.8396 14.6668 16.0827C14.6668 16.3258 14.7634 16.559 14.9353 16.7309C15.1072 16.9028 15.3404 16.9993 15.5835 16.9993C15.8266 16.9993 16.0598 16.9028 16.2317 16.7309C16.4036 16.559 16.5002 16.3258 16.5002 16.0827C16.5002 15.8396 16.4036 15.6064 16.2317 15.4345C16.0598 15.2626 15.8266 15.166 15.5835 15.166ZM13.7502 5.99935H3.66683V14.2493H4.36716C4.61508 13.9715 4.91689 13.747 5.25425 13.5894C5.59161 13.4318 5.95749 13.3445 6.32966 13.3326C6.70182 13.3208 7.07251 13.3847 7.4192 13.5206C7.76589 13.6564 8.08135 13.8613 8.34641 14.1228L8.4665 14.2493H13.5338L13.6392 14.1384L13.7502 14.033V5.99935ZM16.9768 8.74935H15.5835V13.3327C16.3352 13.3327 17.0162 13.6352 17.5131 14.1228L17.6332 14.2493H18.3335V10.4452L16.9768 8.74935Z" fill="#0098B3" stroke="#F0FAFA" stroke-width="0.5"/>
</g>
<defs>
<clipPath id="clip0_1175_15870">
<rect width="22" height="22" fill="white" transform="translate(0 0.5)"/>
</clipPath>
</defs>
</svg>
