<svg width="18" height="18" viewBox="0 0 18 18" fill="none" xmlns="http://www.w3.org/2000/svg">
<path fill-rule="evenodd" clip-rule="evenodd" d="M8.99999 10.0606L13.2427 14.3034C13.3842 14.44 13.5736 14.5156 13.7703 14.5139C13.9669 14.5122 14.155 14.4333 14.2941 14.2942C14.4332 14.1552 14.512 13.9671 14.5137 13.7704C14.5155 13.5738 14.4399 13.3843 14.3032 13.2429L10.0605 9.00011L14.3032 4.75736C14.4399 4.61591 14.5155 4.42646 14.5137 4.22981C14.512 4.03316 14.4332 3.84505 14.2941 3.706C14.155 3.56694 13.9669 3.48807 13.7703 3.48636C13.5736 3.48465 13.3842 3.56024 13.2427 3.69686L8.99999 7.93961L4.75724 3.69686C4.61515 3.56362 4.4268 3.49089 4.23204 3.49405C4.03728 3.49721 3.85138 3.57602 3.7137 3.71381C3.57601 3.85159 3.49733 4.03754 3.4943 4.2323C3.49128 4.42707 3.56415 4.61537 3.69749 4.75736L7.93949 9.00011L3.69674 13.2429C3.62511 13.312 3.56797 13.3948 3.52866 13.4863C3.48936 13.5778 3.46867 13.6762 3.4678 13.7758C3.46694 13.8754 3.48591 13.9742 3.52362 14.0663C3.56133 14.1585 3.61702 14.2422 3.68744 14.3127C3.75786 14.3831 3.8416 14.4388 3.93377 14.4765C4.02595 14.5142 4.12471 14.5332 4.22429 14.5323C4.32387 14.5314 4.42229 14.5107 4.51379 14.4714C4.6053 14.4321 4.68805 14.375 4.75724 14.3034L8.99999 10.0606Z" fill="#778A8D"/>
</svg>
