<svg width="16" height="16" viewBox="0 0 16 16" fill="none" xmlns="http://www.w3.org/2000/svg">
<g clip-path="url(#clip0_2020_37089)">
<path fill-rule="evenodd" clip-rule="evenodd" d="M8.00029 4.68457C7.56519 4.68457 7.13434 4.77026 6.73236 4.93676C6.33037 5.10325 5.96512 5.34729 5.65745 5.65493C5.34978 5.96258 5.10573 6.3278 4.93922 6.72975C4.77271 7.13171 4.68701 7.56252 4.68701 7.99759C4.68701 8.43267 4.77271 8.86348 4.93922 9.26543C5.10573 9.66739 5.34978 10.0326 5.65745 10.3403C5.96512 10.6479 6.33037 10.8919 6.73236 11.0584C7.13434 11.2249 7.56519 11.3106 8.00029 11.3106C8.87903 11.3106 9.72178 10.9616 10.3431 10.3403C10.9645 9.71894 11.3136 8.87626 11.3136 7.99759C11.3136 7.11893 10.9645 6.27624 10.3431 5.65493C9.72178 5.03362 8.87903 4.68457 8.00029 4.68457ZM6.02032 7.99759C6.02032 7.47251 6.22893 6.96894 6.60024 6.59765C6.97156 6.22637 7.47517 6.01778 8.00029 6.01778C8.52541 6.01778 9.02903 6.22637 9.40034 6.59765C9.77166 6.96894 9.98026 7.47251 9.98026 7.99759C9.98026 8.52267 9.77166 9.02625 9.40034 9.39753C9.02903 9.76882 8.52541 9.97741 8.00029 9.97741C7.47517 9.97741 6.97156 9.76882 6.60024 9.39753C6.22893 9.02625 6.02032 8.52267 6.02032 7.99759Z" fill="#777777"/>
<path fill-rule="evenodd" clip-rule="evenodd" d="M15.8739 7.56758C12.9313 0.612891 3.06874 0.612891 0.126121 7.56758L0.0527893 7.74089C0.0179518 7.82314 0 7.91155 0 8.00087C0 8.09019 0.0179518 8.1786 0.0527893 8.26084L0.126121 8.43416C3.06874 15.3888 12.9313 15.3888 15.8739 8.43416L15.9472 8.26084C15.982 8.1786 16 8.09019 16 8.00087C16 7.91155 15.982 7.82314 15.9472 7.74089L15.8739 7.56758ZM14.6086 8.00087C12.0926 13.7557 3.9074 13.7557 1.39144 8.00087C3.9074 2.24607 12.0926 2.24607 14.6086 8.00087Z" fill="#777777"/>
<rect x="1.79736" y="2.2002" width="16.7777" height="1.4" rx="0.7" transform="rotate(37.82 1.79736 2.2002)" fill="#777777"/>
</g>
<defs>
<clipPath id="clip0_2020_37089">
<rect width="16" height="16" fill="white"/>
</clipPath>
</defs>
</svg>
