<svg width="22" height="22" viewBox="0 0 22 22" fill="none" xmlns="http://www.w3.org/2000/svg">
<path d="M3.66577 6.00796C3.66577 5.62978 3.82029 5.26709 4.09535 4.99968C4.3704 4.73226 4.74345 4.58203 5.13244 4.58203H9.53244V17.4154H5.13244C4.74345 17.4154 4.3704 17.2651 4.09535 16.9977C3.82029 16.7303 3.66577 16.3676 3.66577 15.9894V6.00796ZM12.4658 4.58203H16.8658C17.2548 4.58203 17.6278 4.73226 17.9029 4.99968C18.1779 5.26709 18.3324 5.62978 18.3324 6.00796V9.57277H12.4658V4.58203ZM12.4658 12.4246H18.3324V15.9894C18.3324 16.3676 18.1779 16.7303 17.9029 16.9977C17.6278 17.2651 17.2548 17.4154 16.8658 17.4154H12.4658V12.4246Z" stroke="#A3A3A3" stroke-width="1.25" stroke-linecap="round" stroke-linejoin="round"/>
</svg>
