<svg width="16" height="16" viewBox="0 0 16 16" fill="none" xmlns="http://www.w3.org/2000/svg">
<path fill-rule="evenodd" clip-rule="evenodd" d="M10.4703 7.52974C10.5952 7.65476 10.6655 7.8243 10.6655 8.00107C10.6655 8.17785 10.5952 8.34739 10.4703 8.47241L6.69893 12.2437C6.63743 12.3074 6.56387 12.3582 6.48253 12.3931C6.40119 12.4281 6.31371 12.4465 6.22519 12.4472C6.13667 12.448 6.04889 12.4311 5.96696 12.3976C5.88503 12.3641 5.81059 12.3146 5.748 12.252C5.6854 12.1894 5.6359 12.115 5.60238 12.033C5.56886 11.9511 5.55199 11.8633 5.55276 11.7748C5.55353 11.6863 5.57192 11.5988 5.60686 11.5175C5.6418 11.4361 5.69259 11.3626 5.75626 11.3011L9.05626 8.00107L5.75626 4.70107C5.63482 4.57534 5.56762 4.40694 5.56914 4.23214C5.57066 4.05734 5.64078 3.89013 5.76438 3.76653C5.88799 3.64292 6.05519 3.57281 6.22999 3.57129C6.40479 3.56977 6.57319 3.63697 6.69893 3.75841L10.4703 7.52974Z" fill="#3A4243"/>
</svg>
