<svg width="48" height="48" viewBox="0 0 48 48" fill="none" xmlns="http://www.w3.org/2000/svg">
<rect width="48" height="48" rx="6" fill="#F22265"/>
<path d="M23.2257 23.9993C26.2593 23.9993 28.7185 21.5401 28.7185 18.5065C28.7185 15.4729 26.2593 13.0137 23.2257 13.0137C20.1921 13.0137 17.7329 15.4729 17.7329 18.5065C17.7329 21.5401 20.1921 23.9993 23.2257 23.9993Z" stroke="white" stroke-width="2" stroke-linecap="round" stroke-linejoin="round"/>
<path d="M13.7891 34.9849C13.7891 30.7334 18.0185 27.2949 23.2257 27.2949C24.2803 27.2949 24.9738 27.3921 25.9295 27.6557" stroke="white" stroke-width="2" stroke-linecap="round" stroke-linejoin="round"/>
<path d="M34.6512 30.5918C34.6512 31.4982 34.3974 32.3562 33.9503 33.0814C33.6965 33.5164 33.3702 33.9031 32.9956 34.2173C32.1496 34.9787 31.0378 35.4259 29.8172 35.4259C28.0528 35.4259 26.5179 34.4832 25.6841 33.0814C25.2369 32.3562 24.9832 31.4982 24.9832 30.5918C24.9832 29.0691 25.6841 27.7035 26.7959 26.8213C27.6298 26.1566 28.6812 25.7578 29.8172 25.7578C32.488 25.7578 34.6512 27.921 34.6512 30.5918Z" stroke="white" stroke-width="2" stroke-miterlimit="10" stroke-linecap="round" stroke-linejoin="round"/>
<path d="M29.6704 29.0391V31.0478L31.365 31.8008" stroke="white" stroke-linecap="round"/>
</svg>
