<svg width="48" height="48" viewBox="0 0 48 48" fill="none" xmlns="http://www.w3.org/2000/svg">
<rect width="48" height="48" rx="6" fill="#CC19D2"/>
<path d="M20.9543 22.8523C20.8434 22.8412 20.7104 22.8412 20.5884 22.8523C17.9501 22.7636 15.855 20.6019 15.855 17.9414C15.855 15.2255 18.0499 13.0195 20.7769 13.0195C23.4928 13.0195 25.6988 15.2255 25.6988 17.9414C25.6877 20.6019 23.5926 22.7636 20.9543 22.8523Z" stroke="white" stroke-width="2" stroke-linecap="round" stroke-linejoin="round"/>
<path d="M28.9913 15.2383C31.1418 15.2383 32.8712 16.9787 32.8712 19.1182C32.8712 21.2133 31.2084 22.9205 29.1354 22.998C29.0467 22.987 28.9469 22.987 28.8472 22.998" stroke="white" stroke-width="2" stroke-linecap="round" stroke-linejoin="round"/>
<path d="M15.4117 26.9453C12.729 28.7411 12.729 31.6677 15.4117 33.4524C18.4601 35.4921 23.4596 35.4921 26.5081 33.4524C29.1908 31.6566 29.1908 28.73 26.5081 26.9453C23.4707 24.9167 18.4712 24.9167 15.4117 26.9453Z" stroke="white" stroke-width="2" stroke-linecap="round" stroke-linejoin="round"/>
<path d="M31.1306 32.9735C31.9288 32.8072 32.6826 32.4857 33.3033 32.0091C35.0327 30.7121 35.0327 28.5726 33.3033 27.2756C32.6937 26.81 31.9509 26.4996 31.1639 26.3223" stroke="white" stroke-width="2" stroke-linecap="round" stroke-linejoin="round"/>
</svg>
