<svg width="48" height="48" viewBox="0 0 48 48" fill="none" xmlns="http://www.w3.org/2000/svg">
<rect width="48" height="48" rx="6" fill="#466EE7"/>
<path d="M22.2771 22.5735C22.1698 22.5627 22.041 22.5627 21.9229 22.5735C19.3683 22.4876 17.3396 20.3945 17.3396 17.8185C17.3289 15.1887 19.4649 13.0527 22.0946 13.0527C24.7244 13.0527 26.8604 15.1887 26.8604 17.8185C26.8604 20.3945 24.821 22.4876 22.2771 22.5735Z" stroke="white" stroke-width="2" stroke-linecap="round" stroke-linejoin="round"/>
<path d="M22.0947 34.3158C20.1412 34.3158 18.1984 33.8221 16.7172 32.8346C14.1197 31.0958 14.1197 28.2621 16.7172 26.534C19.6689 24.559 24.5098 24.559 27.4616 26.534" stroke="white" stroke-width="2" stroke-linecap="round" stroke-linejoin="round"/>
<path d="M29.1925 22.998C34.0842 23.8893 36.0869 32.3131 26.0791 32.3131" stroke="white" stroke-width="2" stroke-linecap="round"/>
<path d="M28.1523 34.9945L25.8296 32.3959L27.385 29.5928" stroke="white" stroke-width="2" stroke-linecap="round"/>
</svg>
