<svg width="48" height="48" viewBox="0 0 48 48" fill="none" xmlns="http://www.w3.org/2000/svg">
<rect width="48" height="48" rx="6" fill="#CC19D2"/>
<path d="M31.8216 13.8314C31.7128 13.7226 31.5837 13.6363 31.4415 13.5775C31.2994 13.5186 31.1471 13.4883 30.9933 13.4883C30.6826 13.4883 30.3846 13.6117 30.1649 13.8314C29.9452 14.0511 29.8218 14.349 29.8218 14.6597C29.8218 14.9704 29.9452 15.2684 30.1649 15.4881L31.6816 16.8298H13.4933C13.1838 16.8298 12.8871 17.0703 12.6683 17.2891C12.4495 17.5079 12.3266 17.8503 12.3266 18.1597C12.3266 18.4691 12.4495 18.7659 12.6683 18.9847C12.8871 19.2035 13.1838 19.3264 13.4933 19.3264H31.6816L30.1649 20.8314C30.0556 20.9398 29.9688 21.0689 29.9095 21.211C29.8503 21.3532 29.8198 21.5057 29.8198 21.6597C29.8198 21.8137 29.8503 21.9662 29.9095 22.1084C29.9688 22.2506 30.0556 22.3796 30.1649 22.4881C30.2734 22.5974 30.4024 22.6842 30.5446 22.7434C30.6868 22.8027 30.8392 22.8332 30.9933 22.8332C31.1473 22.8332 31.2998 22.8027 31.4419 22.7434C31.5841 22.6842 31.7131 22.5974 31.8216 22.4881L35.3216 18.9881C35.4309 18.8796 35.5177 18.7506 35.577 18.6084C35.6362 18.4662 35.6667 18.3137 35.6667 18.1597C35.6667 18.0057 35.6362 17.8532 35.577 17.711C35.5177 17.5689 35.4309 17.4398 35.3216 17.3314L31.8216 13.8314ZM34.4933 28.6597H16.3049L17.8216 27.1547C18.0413 26.935 18.1647 26.6371 18.1647 26.3264C18.1647 26.0157 18.0413 25.7177 17.8216 25.4981C17.6019 25.2784 17.3039 25.1549 16.9933 25.1549C16.6826 25.1549 16.3846 25.2784 16.1649 25.4981L12.6649 28.9981C12.5556 29.1065 12.4688 29.2355 12.4095 29.3777C12.3503 29.5199 12.3198 29.6724 12.3198 29.8264C12.3198 29.9804 12.3503 30.1329 12.4095 30.2751C12.4688 30.4172 12.5556 30.5463 12.6649 30.6547L16.1649 34.1547C16.2734 34.2641 16.4024 34.3509 16.5446 34.4101C16.6868 34.4693 16.8392 34.4998 16.9933 34.4998C17.1473 34.4998 17.2998 34.4693 17.4419 34.4101C17.5841 34.3509 17.7131 34.2641 17.8216 34.1547C17.9309 34.0463 18.0177 33.9172 18.077 33.7751C18.1362 33.6329 18.1667 33.4804 18.1667 33.3264C18.1667 33.1724 18.1362 33.0199 18.077 32.8777C18.0177 32.7355 17.9309 32.6065 17.8216 32.4981L16.5446 31.165H34.4933C34.8027 31.165 35.0994 30.9499 35.3182 30.7311C35.537 30.5123 35.6599 30.1358 35.6599 29.8264C35.6599 29.517 35.537 29.2202 35.3182 29.0014C35.0994 28.7826 34.8027 28.6597 34.4933 28.6597Z" fill="white"/>
</svg>
