<svg width="48" height="48" viewBox="0 0 48 48" fill="none" xmlns="http://www.w3.org/2000/svg">
<rect width="48" height="48" rx="6" fill="#F22265"/>
<path d="M24.2461 34.206C24.377 33.5845 23.9017 33.003 23.2689 32.9488C20.5793 32.7187 18.0963 31.6824 16.5 29.25H19.5C20.0523 29.25 20.5 28.8023 20.5 28.25V28C20.5 27.4477 20.0523 27 19.5 27H14C13.4477 27 13 27.4477 13 28V33.5C13 34.0523 13.4477 34.5 14 34.5H14.25C14.8023 34.5 15.25 34.0523 15.25 33.5V31.2625C17.2631 33.6782 20.0913 35.1306 23.1891 35.3468C23.6608 35.3797 24.0697 35.0438 24.1672 34.581L24.2461 34.206ZM36.1699 30.125C36.6974 30.125 37.125 29.6974 37.125 29.1699C37.125 28.6423 36.6974 28.2147 36.1699 28.2147H35.2875C35.2 27.6897 35.025 27.4015 34.7625 26.8765L35.4148 26.2305C35.7798 25.8691 35.781 25.2797 35.4176 24.9167C35.0557 24.5553 34.4695 24.5555 34.1079 24.9171L33.45 25.575C33.0125 25.3125 32.6125 25.05 32 24.9625V24.0625C32 23.5447 31.5803 23.125 31.0625 23.125C30.5447 23.125 30.125 23.5447 30.125 24.0625V24.9625C29.6 25.05 29.075 25.3125 28.55 25.575L27.8932 24.9182C27.5314 24.5564 26.9444 24.5571 26.5835 24.9199C26.2235 25.2818 26.2247 25.867 26.5862 26.2273L27.2375 26.8765C26.975 27.314 26.8 27.7625 26.7125 28.375H25.7949C25.2868 28.375 24.875 28.7868 24.875 29.2949C24.875 29.8029 25.2868 30.2147 25.7949 30.2147H26.7125C26.8 30.7397 26.975 31.0771 27.2375 31.6021L26.5782 32.27C26.2203 32.6327 26.2214 33.2161 26.5808 33.5774C26.9432 33.9417 27.5326 33.9424 27.8959 33.5791L28.55 32.925C28.9875 33.1875 29.3875 33.45 30 33.5375V34.4375C30 34.9553 30.4197 35.375 30.9375 35.375C31.4553 35.375 31.875 34.9553 31.875 34.4375V33.5375C32.4 33.45 32.925 33.1875 33.45 32.925L34.1072 33.5822C34.4702 33.9452 35.0578 33.9482 35.4244 33.589C35.7973 33.2237 35.7994 32.6241 35.4292 32.2562L34.7625 31.5935C35.025 31.156 35.2 30.7375 35.2875 30.125H36.1699ZM31 31.7C29.5125 31.7 28.6673 30.7375 28.6673 29.25C28.6673 27.7625 29.5125 27 31 27C32.4875 27 33.3191 27.7625 33.3191 29.25C33.3191 30.7375 32.4875 31.7 31 31.7ZM27.5 19.75C27.5 19.1977 27.9477 18.75 28.5 18.75H31.2746C28 15 23.4625 13.6125 19 16.5C16.5733 18.0656 15.2871 20.2415 15.043 23.0008C14.9944 23.5509 14.5523 24 14 24H13.625C13.0727 24 12.6204 23.5507 12.6679 23.0005C13.1712 17.1718 18.0369 12.625 24 12.625C27.4125 12.625 30.5625 14.1125 32.75 16.7375V14.5C32.75 13.9477 33.1977 13.5 33.75 13.5H34C34.5523 13.5 35 13.9477 35 14.5V20C35 20.5523 34.5523 21 34 21H28.5C27.9477 21 27.5 20.5523 27.5 20V19.75Z" fill="white"/>
</svg>
