<svg width="48" height="48" viewBox="0 0 48 48" fill="none" xmlns="http://www.w3.org/2000/svg">
<rect width="48" height="48" rx="6" fill="#2592CB"/>
<path d="M21.9502 29.0343L17 24.083L18.6497 22.4333L21.9502 25.7326L28.5488 19.1328L30.1997 20.7836L21.9502 29.032V29.0343Z" fill="white"/>
<path fill-rule="evenodd" clip-rule="evenodd" d="M11.167 24.0013C11.167 16.9138 16.9128 11.168 24.0003 11.168C31.0878 11.168 36.8337 16.9138 36.8337 24.0013C36.8337 31.0888 31.0878 36.8346 24.0003 36.8346C16.9128 36.8346 11.167 31.0888 11.167 24.0013ZM24.0003 34.5013C22.6214 34.5013 21.2561 34.2297 19.9821 33.702C18.7082 33.1744 17.5507 32.4009 16.5757 31.4259C15.6007 30.4509 14.8273 29.2934 14.2996 28.0195C13.7719 26.7456 13.5003 25.3802 13.5003 24.0013C13.5003 22.6224 13.7719 21.257 14.2996 19.9831C14.8273 18.7092 15.6007 17.5517 16.5757 16.5767C17.5507 15.6017 18.7082 14.8282 19.9821 14.3006C21.2561 13.7729 22.6214 13.5013 24.0003 13.5013C26.7851 13.5013 29.4558 14.6075 31.4249 16.5767C33.3941 18.5458 34.5003 21.2165 34.5003 24.0013C34.5003 26.7861 33.3941 29.4568 31.4249 31.4259C29.4558 33.3951 26.7851 34.5013 24.0003 34.5013Z" fill="white"/>
</svg>
