<svg width="24" height="24" viewBox="0 0 24 24" fill="none" xmlns="http://www.w3.org/2000/svg">
<path fill-rule="evenodd" clip-rule="evenodd" d="M12.7044 15.7054C12.5169 15.8929 12.2626 15.9982 11.9974 15.9982C11.7323 15.9982 11.4779 15.8929 11.2904 15.7054L5.63341 10.0484C5.5379 9.95614 5.46172 9.8458 5.40931 9.72379C5.3569 9.60179 5.32932 9.47057 5.32816 9.33779C5.32701 9.20501 5.35231 9.07333 5.40259 8.95044C5.45287 8.82754 5.52713 8.71589 5.62102 8.62199C5.71491 8.5281 5.82656 8.45385 5.94946 8.40357C6.07236 8.35329 6.20404 8.32799 6.33681 8.32914C6.46959 8.33029 6.60081 8.35788 6.72282 8.41029C6.84482 8.4627 6.95517 8.53888 7.04741 8.63439L11.9974 13.5844L16.9474 8.63439C17.136 8.45223 17.3886 8.35144 17.6508 8.35372C17.913 8.35599 18.1638 8.46116 18.3492 8.64657C18.5346 8.83198 18.6398 9.08279 18.6421 9.34499C18.6444 9.60719 18.5436 9.85979 18.3614 10.0484L12.7044 15.7054Z" fill="#8B98A4"/>
</svg>
