<svg width="24" height="24" viewBox="0 0 24 24" fill="none" xmlns="http://www.w3.org/2000/svg">
<path fill-rule="evenodd" clip-rule="evenodd" d="M12.7044 8.29461C12.5169 8.10714 12.2626 8.00182 11.9974 8.00182C11.7323 8.00182 11.4779 8.10714 11.2904 8.29461L5.63341 13.9516C5.5379 14.0439 5.46172 14.1542 5.40931 14.2762C5.3569 14.3982 5.32932 14.5294 5.32816 14.6622C5.32701 14.795 5.35231 14.9267 5.40259 15.0496C5.45287 15.1725 5.52713 15.2841 5.62102 15.378C5.71491 15.4719 5.82656 15.5462 5.94946 15.5964C6.07236 15.6467 6.20404 15.672 6.33681 15.6709C6.46959 15.6697 6.60081 15.6421 6.72282 15.5897C6.84482 15.5373 6.95517 15.4611 7.04741 15.3656L11.9974 10.4156L16.9474 15.3656C17.136 15.5478 17.3886 15.6486 17.6508 15.6463C17.913 15.644 18.1638 15.5388 18.3492 15.3534C18.5346 15.168 18.6398 14.9172 18.6421 14.655C18.6444 14.3928 18.5436 14.1402 18.3614 13.9516L12.7044 8.29461Z" fill="#8B98A4"/>
</svg>
