<svg width="32" height="32" viewBox="0 0 32 32" fill="none" xmlns="http://www.w3.org/2000/svg">
<g clip-path="url(#clip0_5640_4958)">
<path fill-rule="evenodd" clip-rule="evenodd" d="M16 32C24.8366 32 32 24.8366 32 16C32 7.16344 24.8366 0 16 0C7.16344 0 0 7.16344 0 16C0 24.8366 7.16344 32 16 32Z" fill="#ECF3F5"/>
<path d="M6.85547 16.0003C6.85547 17.2009 7.09196 18.3898 7.55143 19.4991C8.0109 20.6084 8.68436 21.6163 9.53335 22.4653C10.3823 23.3142 11.3902 23.9877 12.4995 24.4472C13.6088 24.9067 14.7977 25.1431 15.9983 25.1431C17.199 25.1431 18.3879 24.9067 19.4971 24.4472C20.6064 23.9877 21.6143 23.3142 22.4633 22.4653C23.3123 21.6163 23.9858 20.6084 24.4452 19.4991C24.9047 18.3898 25.1412 17.2009 25.1412 16.0003C25.1412 14.7996 24.9047 13.6107 24.4452 12.5015C23.9858 11.3922 23.3123 10.3843 22.4633 9.5353C21.6143 8.68631 20.6064 8.01285 19.4971 7.55338C18.3879 7.09391 17.199 6.85742 15.9983 6.85742C14.7977 6.85742 13.6088 7.09391 12.4995 7.55338C11.3902 8.01285 10.3823 8.68631 9.53335 9.5353C8.68436 10.3843 8.0109 11.3922 7.55143 12.5015C7.09196 13.6107 6.85547 14.7996 6.85547 16.0003Z" stroke="#0098B3" stroke-width="1.14286" stroke-linecap="round" stroke-linejoin="round"/>
<path d="M12.9492 13.9685C12.9492 14.7768 13.2703 15.552 13.8418 16.1235C14.4134 16.695 15.1886 17.0161 15.9968 17.0161C16.8051 17.0161 17.5803 16.695 18.1518 16.1235C18.7234 15.552 19.0445 14.7768 19.0445 13.9685C19.0445 13.1602 18.7234 12.3851 18.1518 11.8135C17.5803 11.242 16.8051 10.9209 15.9968 10.9209C15.1886 10.9209 14.4134 11.242 13.8418 11.8135C13.2703 12.3851 12.9492 13.1602 12.9492 13.9685Z" stroke="#0098B3" stroke-width="1.14286" stroke-linecap="round" stroke-linejoin="round"/>
<path d="M10.0742 22.9577C10.3257 22.1209 10.8402 21.3873 11.5414 20.866C12.2426 20.3446 13.0932 20.0632 13.967 20.0635H18.0305C18.9055 20.0632 19.7571 20.3453 20.4589 20.8678C21.1606 21.3904 21.6749 22.1255 21.9254 22.9638" stroke="#0098B3" stroke-width="1.14286" stroke-linecap="round" stroke-linejoin="round"/>
</g>
<defs>
<clipPath id="clip0_5640_4958">
<rect width="32" height="32" fill="white"/>
</clipPath>
</defs>
</svg>
