<svg width="38" height="38" viewBox="0 0 38 38" fill="none" xmlns="http://www.w3.org/2000/svg">
<rect x="0.5" y="0.5" width="37" height="37" rx="3.5" stroke="#DA0000" stroke-opacity="0.4"/>
<g clip-path="url(#clip0_4585_28798)">
<path d="M19 10.0035C16.6136 10.0073 14.326 10.9574 12.6389 12.6455C10.9518 14.3336 10.0028 16.622 10 19.0089C10.0047 21.3939 10.9547 23.6797 12.6419 25.3651C14.329 27.0506 16.6155 27.9981 19 28C23.959 28 28 23.9653 28 19.0053C28 14.0453 23.959 10 19 10V10.0035ZM19 11.8826C20.666 11.8826 22.2877 12.5463 23.5 13.5L13.5 23.5C12.5231 22.2485 11.872 20.593 11.8751 19.0053C11.8829 15.1035 14.7109 11.8791 19 11.8791V11.8826ZM24.7211 14.7473C25.6038 15.935 26.1249 17.4063 26.1249 19.0053C26.5 23 23 26 19 26C17.3872 26 15.9055 25.5998 14.7109 24.7028L24.7211 14.7473Z" fill="#DA0000"/>
</g>
<defs>
<clipPath id="clip0_4585_28798">
<rect width="18" height="18" fill="white" transform="translate(10 10)"/>
</clipPath>
</defs>
</svg>
