<svg width="32" height="32" viewBox="0 0 32 32" fill="none" xmlns="http://www.w3.org/2000/svg">
<g clip-path="url(#clip0_5640_4974)">
<path fill-rule="evenodd" clip-rule="evenodd" d="M16 32C24.8366 32 32 24.8366 32 16C32 7.16344 24.8366 0 16 0C7.16344 0 0 7.16344 0 16C0 24.8366 7.16344 32 16 32Z" fill="#0098B3"/>
<g clip-path="url(#clip1_5640_4974)">
<path d="M9.90234 17.5235V15.2378C9.90234 13.6213 10.5445 12.0709 11.6876 10.9278C12.8307 9.78475 14.381 9.14258 15.9976 9.14258C17.6141 9.14258 19.1645 9.78475 20.3076 10.9278C21.4506 12.0709 22.0928 13.6213 22.0928 15.2378V17.5235" stroke="white" stroke-width="1.14286" stroke-linecap="round" stroke-linejoin="round"/>
<path d="M20.5714 21.333C20.5714 22.5955 18.525 23.6187 16 23.6187" stroke="white" stroke-width="1.14286" stroke-linecap="round" stroke-linejoin="round"/>
<path d="M9.90234 17.5238C9.90234 17.1197 10.0629 16.7321 10.3487 16.4463C10.6344 16.1605 11.022 16 11.4262 16H12.1881C12.5922 16 12.9798 16.1605 13.2656 16.4463C13.5513 16.7321 13.7119 17.1197 13.7119 17.5238V19.8095C13.7119 20.2137 13.5513 20.6012 13.2656 20.887C12.9798 21.1728 12.5922 21.3333 12.1881 21.3333H11.4262C11.022 21.3333 10.6344 21.1728 10.3487 20.887C10.0629 20.6012 9.90234 20.2137 9.90234 19.8095V17.5238Z" stroke="white" stroke-width="1.14286" stroke-linecap="round" stroke-linejoin="round"/>
<path d="M18.2852 17.5238C18.2852 17.1197 18.4457 16.7321 18.7315 16.4463C19.0172 16.1605 19.4048 16 19.809 16H20.5709C20.975 16 21.3626 16.1605 21.6484 16.4463C21.9341 16.7321 22.0947 17.1197 22.0947 17.5238V19.8095C22.0947 20.2137 21.9341 20.6012 21.6484 20.887C21.3626 21.1728 20.975 21.3333 20.5709 21.3333H19.809C19.4048 21.3333 19.0172 21.1728 18.7315 20.887C18.4457 20.6012 18.2852 20.2137 18.2852 19.8095V17.5238Z" stroke="white" stroke-width="1.14286" stroke-linecap="round" stroke-linejoin="round"/>
</g>
</g>
<defs>
<clipPath id="clip0_5640_4974">
<rect width="32" height="32" fill="white"/>
</clipPath>
<clipPath id="clip1_5640_4974">
<rect width="18.2857" height="18.2857" fill="white" transform="translate(6.85547 6.85645)"/>
</clipPath>
</defs>
</svg>
