<svg width="38" height="38" viewBox="0 0 38 38" fill="none" xmlns="http://www.w3.org/2000/svg">
<rect x="0.5" y="0.5" width="37" height="37" rx="3.5" stroke="#0098B3"/>
<g clip-path="url(#clip0_4585_28805)">
<path d="M25.7102 9.29289C25.5227 9.10536 25.2683 9 25.0031 9H11.3438C10.0514 9 9 10.0514 9 11.3438V26.6562C9 27.9486 10.0514 29 11.3438 29H26.6562C27.9486 29 29 27.9486 29 26.6562V12.9969C29 12.7317 28.8946 12.4773 28.7071 12.2898L25.7102 9.29289ZM15.1328 10.5625H19.7812H21.3438H22.9062V14.3125C22.9062 14.7433 22.5558 15.0938 22.125 15.0938H15.9141C15.4833 15.0938 15.1328 14.7433 15.1328 14.3125V10.5625ZM24.4688 27.4375H13.5703V20.5625C13.5703 20.1317 13.9208 19.7812 14.3516 19.7812H23.6875C24.1183 19.7812 24.4688 20.1317 24.4688 20.5625V27.4375ZM27.4375 26.6562C27.4375 27.087 27.087 27.4375 26.6562 27.4375H26.0312V20.5625C26.0312 19.2702 24.9798 18.2188 23.6875 18.2188H14.3516C13.0592 18.2188 12.0078 19.2702 12.0078 20.5625V27.4375H11.3438C10.913 27.4375 10.5625 27.087 10.5625 26.6562V11.3438C10.5625 10.913 10.913 10.5625 11.3438 10.5625H13.5703V14.3125C13.5703 15.6048 14.6217 16.6562 15.9141 16.6562H22.125C23.4173 16.6562 24.4688 15.6048 24.4688 14.3125V10.5625H24.7702L27.4375 13.2298V26.6562Z" fill="#0098B3"/>
</g>
<defs>
<clipPath id="clip0_4585_28805">
<rect width="20" height="20" fill="white" transform="translate(9 9)"/>
</clipPath>
</defs>
</svg>
