<svg width="18" height="18" viewBox="0 0 18 18" fill="none" xmlns="http://www.w3.org/2000/svg">
<path fill-rule="evenodd" clip-rule="evenodd" d="M9.00078 5.68445C8.56568 5.68445 8.13483 5.77014 7.73284 5.93664C7.33086 6.10313 6.96561 6.34717 6.65794 6.65481C6.35027 6.96245 6.10622 7.32768 5.93971 7.72963C5.7732 8.13159 5.6875 8.5624 5.6875 8.99747C5.6875 9.43254 5.7732 9.86336 5.93971 10.2653C6.10622 10.6673 6.35027 11.0325 6.65794 11.3401C6.96561 11.6478 7.33086 11.8918 7.73284 12.0583C8.13483 12.2248 8.56568 12.3105 9.00078 12.3105C9.87952 12.3105 10.7223 11.9614 11.3436 11.3401C11.965 10.7188 12.3141 9.87614 12.3141 8.99747C12.3141 8.1188 11.965 7.27612 11.3436 6.65481C10.7223 6.0335 9.87952 5.68445 9.00078 5.68445ZM7.02081 8.99747C7.02081 8.47239 7.22942 7.96882 7.60073 7.59753C7.97205 7.22624 8.47566 7.01766 9.00078 7.01766C9.5259 7.01766 10.0295 7.22624 10.4008 7.59753C10.7721 7.96882 10.9808 8.47239 10.9808 8.99747C10.9808 9.52255 10.7721 10.0261 10.4008 10.3974C10.0295 10.7687 9.5259 10.9773 9.00078 10.9773C8.47566 10.9773 7.97205 10.7687 7.60073 10.3974C7.22942 10.0261 7.02081 9.52255 7.02081 8.99747Z" fill="#0098B3"/>
<path fill-rule="evenodd" clip-rule="evenodd" d="M16.8739 8.56733C13.9313 1.61265 4.06874 1.61265 1.12612 8.56733L1.05279 8.74065C1.01795 8.8229 1 8.9113 1 9.00062C1 9.08994 1.01795 9.17835 1.05279 9.2606L1.12612 9.43392C4.06874 16.3886 13.9313 16.3886 16.8739 9.43392L16.9472 9.2606C16.982 9.17835 17 9.08994 17 9.00062C17 8.9113 16.982 8.8229 16.9472 8.74065L16.8739 8.56733ZM15.6086 9.00062C13.0926 14.7554 4.9074 14.7554 2.39144 9.00062C4.9074 3.24583 13.0926 3.24583 15.6086 9.00062Z" fill="#0098B3"/>
</svg>
