<svg width="47" height="47" viewBox="0 0 47 47" fill="none" xmlns="http://www.w3.org/2000/svg">
<path d="M36.7864 12.4577C35.6726 10.2622 34.0248 8.38186 31.9945 6.98956C29.9642 5.59725 27.6165 4.73763 25.1671 4.48971C24.0585 4.37843 22.9416 4.37843 21.833 4.48971C19.3838 4.73803 17.0363 5.5978 15.006 6.99006C12.9757 8.38232 11.3279 10.2624 10.2138 12.4577C8.81194 15.2588 8.27032 18.4122 8.65714 21.5206C9.04396 24.6289 10.3419 27.5534 12.3875 29.9255L22.3662 42.0574C22.504 42.2248 22.6771 42.3595 22.8732 42.4521C23.0692 42.5446 23.2833 42.5926 23.5001 42.5926C23.7169 42.5926 23.931 42.5446 24.127 42.4521C24.323 42.3595 24.4962 42.2248 24.634 42.0574L34.6112 29.9255C36.657 27.5535 37.9552 24.6292 38.3423 21.5208C38.7294 18.4124 38.188 15.259 36.7864 12.4577Z" fill="#FB4656"/>
<path d="M23.5 26.4355C27.5558 26.4355 30.8438 23.1476 30.8438 19.0918C30.8438 15.036 27.5558 11.748 23.5 11.748C19.4442 11.748 16.1562 15.036 16.1562 19.0918C16.1562 23.1476 19.4442 26.4355 23.5 26.4355Z" fill="#C82540"/>
</svg>
