<svg width="37" height="37" viewBox="0 0 37 37" fill="none" xmlns="http://www.w3.org/2000/svg">
<rect width="37" height="37" rx="4" fill="#E2ECF9"/>
<path d="M27.3281 13.9422L25.8172 12.4328C25.6999 12.3155 25.5409 12.2497 25.375 12.2497C25.2091 12.2497 25.0501 12.3155 24.9328 12.4328C24.8155 12.5501 24.7497 12.7091 24.7497 12.875C24.7497 13.0409 24.8155 13.1999 24.9328 13.3172L26.4422 14.8281C26.5588 14.9449 26.6245 15.103 26.625 15.268V21.625C26.625 21.7908 26.5592 21.9497 26.4419 22.0669C26.3247 22.1842 26.1658 22.25 26 22.25C25.8342 22.25 25.6753 22.1842 25.5581 22.0669C25.4408 21.9497 25.375 21.7908 25.375 21.625V18.5C25.375 18.0027 25.1775 17.5258 24.8258 17.1742C24.4742 16.8225 23.9973 16.625 23.5 16.625H22.25V12.875C22.25 12.3777 22.0525 11.9008 21.7008 11.5492C21.3492 11.1975 20.8723 11 20.375 11H14.125C13.6277 11 13.1508 11.1975 12.7992 11.5492C12.4475 11.9008 12.25 12.3777 12.25 12.875V24.75H11C10.8342 24.75 10.6753 24.8158 10.5581 24.9331C10.4408 25.0503 10.375 25.2092 10.375 25.375C10.375 25.5408 10.4408 25.6997 10.5581 25.8169C10.6753 25.9342 10.8342 26 11 26H23.5C23.6658 26 23.8247 25.9342 23.9419 25.8169C24.0592 25.6997 24.125 25.5408 24.125 25.375C24.125 25.2092 24.0592 25.0503 23.9419 24.9331C23.8247 24.8158 23.6658 24.75 23.5 24.75H22.25V17.875H23.5C23.6658 17.875 23.8247 17.9408 23.9419 18.0581C24.0592 18.1753 24.125 18.3342 24.125 18.5V21.625C24.125 22.1223 24.3225 22.5992 24.6742 22.9508C25.0258 23.3025 25.5027 23.5 26 23.5C26.4973 23.5 26.9742 23.3025 27.3258 22.9508C27.6775 22.5992 27.875 22.1223 27.875 21.625V15.268C27.8759 15.0218 27.8281 14.7779 27.7342 14.5504C27.6404 14.3228 27.5023 14.1161 27.3281 13.9422ZM13.5 24.75V12.875C13.5 12.7092 13.5658 12.5503 13.6831 12.4331C13.8003 12.3158 13.9592 12.25 14.125 12.25H20.375C20.5408 12.25 20.6997 12.3158 20.8169 12.4331C20.9342 12.5503 21 12.7092 21 12.875V24.75H13.5ZM19.75 17.25C19.75 17.4158 19.6842 17.5747 19.5669 17.6919C19.4497 17.8092 19.2908 17.875 19.125 17.875H15.375C15.2092 17.875 15.0503 17.8092 14.9331 17.6919C14.8158 17.5747 14.75 17.4158 14.75 17.25C14.75 17.0842 14.8158 16.9253 14.9331 16.8081C15.0503 16.6908 15.2092 16.625 15.375 16.625H19.125C19.2908 16.625 19.4497 16.6908 19.5669 16.8081C19.6842 16.9253 19.75 17.0842 19.75 17.25Z" fill="white"/>
<path d="M27.3281 13.9422L25.8172 12.4328C25.6999 12.3155 25.5409 12.2497 25.375 12.2497C25.2091 12.2497 25.0501 12.3155 24.9328 12.4328C24.8155 12.5501 24.7497 12.7091 24.7497 12.875C24.7497 13.0409 24.8155 13.1999 24.9328 13.3172L26.4422 14.8281C26.5588 14.9449 26.6245 15.103 26.625 15.268V21.625C26.625 21.7908 26.5592 21.9497 26.4419 22.0669C26.3247 22.1842 26.1658 22.25 26 22.25C25.8342 22.25 25.6753 22.1842 25.5581 22.0669C25.4408 21.9497 25.375 21.7908 25.375 21.625V18.5C25.375 18.0027 25.1775 17.5258 24.8258 17.1742C24.4742 16.8225 23.9973 16.625 23.5 16.625H22.25V12.875C22.25 12.3777 22.0525 11.9008 21.7008 11.5492C21.3492 11.1975 20.8723 11 20.375 11H14.125C13.6277 11 13.1508 11.1975 12.7992 11.5492C12.4475 11.9008 12.25 12.3777 12.25 12.875V24.75H11C10.8342 24.75 10.6753 24.8158 10.5581 24.9331C10.4408 25.0503 10.375 25.2092 10.375 25.375C10.375 25.5408 10.4408 25.6997 10.5581 25.8169C10.6753 25.9342 10.8342 26 11 26H23.5C23.6658 26 23.8247 25.9342 23.9419 25.8169C24.0592 25.6997 24.125 25.5408 24.125 25.375C24.125 25.2092 24.0592 25.0503 23.9419 24.9331C23.8247 24.8158 23.6658 24.75 23.5 24.75H22.25V17.875H23.5C23.6658 17.875 23.8247 17.9408 23.9419 18.0581C24.0592 18.1753 24.125 18.3342 24.125 18.5V21.625C24.125 22.1223 24.3225 22.5992 24.6742 22.9508C25.0258 23.3025 25.5027 23.5 26 23.5C26.4973 23.5 26.9742 23.3025 27.3258 22.9508C27.6775 22.5992 27.875 22.1223 27.875 21.625V15.268C27.8759 15.0218 27.8281 14.7779 27.7342 14.5504C27.6404 14.3228 27.5023 14.1161 27.3281 13.9422ZM13.5 24.75V12.875C13.5 12.7092 13.5658 12.5503 13.6831 12.4331C13.8003 12.3158 13.9592 12.25 14.125 12.25H20.375C20.5408 12.25 20.6997 12.3158 20.8169 12.4331C20.9342 12.5503 21 12.7092 21 12.875V24.75H13.5ZM19.75 17.25C19.75 17.4158 19.6842 17.5747 19.5669 17.6919C19.4497 17.8092 19.2908 17.875 19.125 17.875H15.375C15.2092 17.875 15.0503 17.8092 14.9331 17.6919C14.8158 17.5747 14.75 17.4158 14.75 17.25C14.75 17.0842 14.8158 16.9253 14.9331 16.8081C15.0503 16.6908 15.2092 16.625 15.375 16.625H19.125C19.2908 16.625 19.4497 16.6908 19.5669 16.8081C19.6842 16.9253 19.75 17.0842 19.75 17.25Z" fill="url(#paint0_linear_2086_29537)"/>
<defs>
<linearGradient id="paint0_linear_2086_29537" x1="31.0654" y1="7.25" x2="5.84322" y2="18.0709" gradientUnits="userSpaceOnUse">
<stop stop-color="#82A6ED"/>
<stop offset="1" stop-color="#667DF4"/>
</linearGradient>
</defs>
</svg>
