<svg width="48" height="48" viewBox="0 0 48 48" fill="none" xmlns="http://www.w3.org/2000/svg">
<rect width="48" height="48" rx="6" fill="#2592CB"/>
<path d="M26.6079 31.9062L28.2895 33.5877L31.6526 30.2246" stroke="white" stroke-width="2" stroke-linecap="round" stroke-linejoin="round"/>
<path d="M24.0856 22.8558C23.975 22.8447 23.8422 22.8447 23.7205 22.8558C21.0875 22.7673 18.9966 20.61 18.9966 17.9549C18.9856 15.2445 21.1871 13.043 23.8975 13.043C26.6079 13.043 28.8095 15.2445 28.8095 17.9549C28.8095 20.61 26.7075 22.7673 24.0856 22.8558Z" stroke="white" stroke-width="2" stroke-linecap="round" stroke-linejoin="round"/>
<path d="M23.8976 34.9594C21.8842 34.9594 19.8818 34.4505 18.3551 33.4328C15.6779 31.6406 15.6779 28.7199 18.3551 26.9388C21.3974 24.9032 26.3868 24.9032 29.4291 26.9388" stroke="white" stroke-width="2" stroke-linecap="round" stroke-linejoin="round"/>
</svg>
