<svg width="48" height="48" viewBox="0 0 48 48" fill="none" xmlns="http://www.w3.org/2000/svg">
<rect width="48" height="48" rx="6" fill="#2592CB"/>
<circle cx="24" cy="24" r="12.9" stroke="white" stroke-width="2.2"/>
<path d="M24.4632 33C24.1863 33 24.0018 32.9 23.8172 32.7L18.2806 26.7C18.0037 26.4 17.9115 26 18.096 25.6C18.1883 25.2 18.5574 25 18.9265 25H21.6948C22.4331 25 23.1713 24.7 23.6327 24.1C24.1863 23.6 24.4632 22.8 24.4632 22C24.4632 21.2 24.1863 20.4 23.6327 19.9C23.1713 19.3 22.4331 19 21.6948 19H18.9265C18.3728 19 18.0037 18.6 18.0037 18C18.0037 17.4 18.3728 17 18.9265 17H29.0771C29.6307 17 29.9998 17.4 29.9998 18C29.9998 18.6 29.6307 19 29.0771 19H25.386C25.9396 19.9 26.3087 20.9 26.3087 22C26.3087 23.3 25.8473 24.6 24.9246 25.5C24.0941 26.5 22.8945 27 21.6948 27H21.1412L25.1091 31.3C25.4782 31.7 25.4782 32.3 25.1091 32.7C24.9246 32.9 24.74 33 24.4632 33Z" fill="white"/>
<path d="M29.0772 23H18.9267C18.373 23 18.0039 22.6 18.0039 22C18.0039 21.4 18.373 21 18.9267 21H29.0772C29.6309 21 30 21.4 30 22C30 22.6 29.6309 23 29.0772 23Z" fill="white"/>
</svg>
