<svg width="48" height="48" viewBox="0 0 48 48" fill="none" xmlns="http://www.w3.org/2000/svg">
<rect width="48" height="48" rx="6" fill="#466EE7"/>
<g clip-path="url(#clip0_2086_33499)">
<path d="M24 10C27.713 10 31.274 11.475 33.8995 14.1005C36.525 16.726 38 20.287 38 24C38 27.713 36.525 31.274 33.8995 33.8995C31.274 36.525 27.713 38 24 38C20.287 38 16.726 36.525 14.1005 33.8995C11.475 31.274 10 27.713 10 24C10 20.287 11.475 16.726 14.1005 14.1005C16.726 11.475 20.287 10 24 10ZM12.625 24C12.625 27.0168 13.8234 29.9101 15.9567 32.0433C18.0899 34.1766 20.9832 35.375 24 35.375C27.0168 35.375 29.9101 34.1766 32.0433 32.0433C34.1766 29.9101 35.375 27.0168 35.375 24C35.375 20.9832 34.1766 18.0899 32.0433 15.9567C29.9101 13.8234 27.0168 12.625 24 12.625C20.9832 12.625 18.0899 13.8234 15.9567 15.9567C13.8234 18.0899 12.625 20.9832 12.625 24ZM24.875 18.3125V23.5485L28.424 24.9695C28.7367 25.1058 28.9841 25.3586 29.1137 25.6742C29.2433 25.9898 29.2448 26.3435 29.1181 26.6603C28.9913 26.977 28.7462 27.232 28.4347 27.3711C28.1232 27.5102 27.7697 27.5225 27.4492 27.4055L23.0743 25.6555C22.8311 25.5578 22.6227 25.3896 22.4758 25.1726C22.3289 24.9556 22.2503 24.6996 22.25 24.4375V18.3125C22.25 17.9644 22.3883 17.6306 22.6344 17.3844C22.8806 17.1383 23.2144 17 23.5625 17C23.9106 17 24.2444 17.1383 24.4906 17.3844C24.7367 17.6306 24.875 17.9644 24.875 18.3125Z" fill="white"/>
</g>
<defs>
<clipPath id="clip0_2086_33499">
<rect width="28" height="28" fill="white" transform="translate(10 10)"/>
</clipPath>
</defs>
</svg>
