<svg width="48" height="48" viewBox="0 0 48 48" fill="none" xmlns="http://www.w3.org/2000/svg">
<rect width="48" height="48" rx="6" fill="#466EE7"/>
<path d="M36.3594 17.6191L34.2441 15.5059C34.0799 15.3418 33.8572 15.2495 33.625 15.2495C33.3928 15.2495 33.1701 15.3418 33.0059 15.5059C32.8417 15.6701 32.7495 15.8928 32.7495 16.125C32.7495 16.3572 32.8417 16.5799 33.0059 16.7441L35.1191 18.8594C35.2823 19.0228 35.3743 19.2442 35.375 19.4752V28.375C35.375 28.6071 35.2828 28.8296 35.1187 28.9937C34.9546 29.1578 34.7321 29.25 34.5 29.25C34.2679 29.25 34.0454 29.1578 33.8813 28.9937C33.7172 28.8296 33.625 28.6071 33.625 28.375V24C33.625 23.3038 33.3484 22.6361 32.8562 22.1438C32.3639 21.6516 31.6962 21.375 31 21.375H29.25V16.125C29.25 15.4288 28.9734 14.7611 28.4812 14.2688C27.9889 13.7766 27.3212 13.5 26.625 13.5H17.875C17.1788 13.5 16.5111 13.7766 16.0188 14.2688C15.5266 14.7611 15.25 15.4288 15.25 16.125V32.75H13.5C13.2679 32.75 13.0454 32.8422 12.8813 33.0063C12.7172 33.1704 12.625 33.3929 12.625 33.625C12.625 33.8571 12.7172 34.0796 12.8813 34.2437C13.0454 34.4078 13.2679 34.5 13.5 34.5H31C31.2321 34.5 31.4546 34.4078 31.6187 34.2437C31.7828 34.0796 31.875 33.8571 31.875 33.625C31.875 33.3929 31.7828 33.1704 31.6187 33.0063C31.4546 32.8422 31.2321 32.75 31 32.75H29.25V23.125H31C31.2321 23.125 31.4546 23.2172 31.6187 23.3813C31.7828 23.5454 31.875 23.7679 31.875 24V28.375C31.875 29.0712 32.1516 29.7389 32.6438 30.2312C33.1361 30.7234 33.8038 31 34.5 31C35.1962 31 35.8639 30.7234 36.3562 30.2312C36.8484 29.7389 37.125 29.0712 37.125 28.375V19.4752C37.1263 19.1305 37.0593 18.7891 36.9279 18.4705C36.7965 18.1519 36.6033 17.8625 36.3594 17.6191ZM17 32.75V16.125C17 15.8929 17.0922 15.6704 17.2563 15.5063C17.4204 15.3422 17.6429 15.25 17.875 15.25H26.625C26.8571 15.25 27.0796 15.3422 27.2437 15.5063C27.4078 15.6704 27.5 15.8929 27.5 16.125V32.75H17ZM25.75 22.25C25.75 22.4821 25.6578 22.7046 25.4937 22.8687C25.3296 23.0328 25.1071 23.125 24.875 23.125H19.625C19.3929 23.125 19.1704 23.0328 19.0063 22.8687C18.8422 22.7046 18.75 22.4821 18.75 22.25C18.75 22.0179 18.8422 21.7954 19.0063 21.6313C19.1704 21.4672 19.3929 21.375 19.625 21.375H24.875C25.1071 21.375 25.3296 21.4672 25.4937 21.6313C25.6578 21.7954 25.75 22.0179 25.75 22.25Z" fill="white"/>
</svg>
