<svg width="48" height="48" viewBox="0 0 48 48" fill="none" xmlns="http://www.w3.org/2000/svg">
<rect width="48" height="48" rx="6" fill="#CC19D2"/>
<path d="M27.3177 33.334H17.583C15.9742 33.334 14.6663 32.0262 14.6663 30.4173C14.6663 28.8085 15.9742 27.5007 17.583 27.5007H25.7497C28.0013 27.5007 29.833 25.669 29.833 23.4173C29.833 21.1657 28.0013 19.334 25.7497 19.334H20.0785C19.6501 20.1738 19.1195 20.9576 18.4988 21.6673H25.7497C26.7145 21.6673 27.4997 22.4525 27.4997 23.4173C27.4997 24.3822 26.7145 25.1673 25.7497 25.1673H17.583C14.6885 25.1673 12.333 27.5228 12.333 30.4173C12.333 33.3118 14.6885 35.6673 17.583 35.6673H28.7748C28.2024 34.9472 27.7135 34.1644 27.3177 33.334ZM15.833 12.334C13.9033 12.334 12.333 13.9043 12.333 15.834C12.333 19.5533 15.833 21.6673 15.833 21.6673C15.833 21.6673 19.333 19.5522 19.333 15.834C19.333 13.9043 17.7627 12.334 15.833 12.334ZM15.833 17.584C15.6031 17.5839 15.3755 17.5386 15.1631 17.4505C14.9508 17.3625 14.7578 17.2334 14.5953 17.0708C14.4328 16.9082 14.3039 16.7152 14.216 16.5028C14.1281 16.2904 14.0829 16.0627 14.083 15.8328C14.0831 15.6029 14.1284 15.3753 14.2165 15.1629C14.3045 14.9506 14.4335 14.7576 14.5962 14.5951C14.7588 14.4326 14.9518 14.3038 15.1642 14.2158C15.3766 14.1279 15.6043 14.0827 15.8342 14.0828C16.2985 14.083 16.7437 14.2676 17.0719 14.596C17.4 14.9244 17.5843 15.3697 17.5842 15.834C17.584 16.2983 17.3994 16.7435 17.071 17.0717C16.7426 17.3999 16.2973 17.5841 15.833 17.584Z" fill="white"/>
<path d="M32.167 26.334C30.2373 26.334 28.667 27.9043 28.667 29.834C28.667 33.5533 32.167 35.6673 32.167 35.6673C32.167 35.6673 35.667 33.5522 35.667 29.834C35.667 27.9043 34.0967 26.334 32.167 26.334ZM32.167 31.584C31.9371 31.5839 31.7095 31.5386 31.4971 31.4505C31.2848 31.3625 31.0918 31.2334 30.9293 31.0708C30.7668 30.9082 30.6379 30.7152 30.55 30.5028C30.4621 30.2904 30.4169 30.0627 30.417 29.8328C30.4171 29.6029 30.4624 29.3753 30.5505 29.1629C30.6385 28.9506 30.7675 28.7576 30.9301 28.5951C31.0928 28.4326 31.2858 28.3038 31.4982 28.2158C31.7106 28.1279 31.9383 28.0827 32.1682 28.0828C32.6324 28.083 33.0776 28.2676 33.4058 28.596C33.734 28.9244 33.9183 29.3697 33.9182 29.834C33.918 30.2983 33.7334 30.7435 33.405 31.0717C33.0766 31.3999 32.6313 31.5841 32.167 31.584Z" fill="white"/>
</svg>
