<svg width="16" height="16" viewBox="0 0 16 16" fill="none" xmlns="http://www.w3.org/2000/svg">
<path d="M5.29303 14.3635C5.10556 14.1759 5.00024 13.9216 5.00024 13.6565C5.00024 13.3913 5.10556 13.137 5.29303 12.9495L10.243 7.99946L5.29303 3.04946C5.11087 2.86086 5.01008 2.60826 5.01236 2.34606C5.01463 2.08387 5.1198 1.83305 5.30521 1.64764C5.49062 1.46224 5.74143 1.35707 6.00363 1.35479C6.26583 1.35251 6.51843 1.45331 6.70703 1.63546L12.364 7.29246C12.5515 7.47999 12.6568 7.7343 12.6568 7.99946C12.6568 8.26463 12.5515 8.51894 12.364 8.70646L6.70703 14.3635C6.5195 14.5509 6.26519 14.6563 6.00003 14.6563C5.73487 14.6563 5.48056 14.5509 5.29303 14.3635Z" fill="#0098B3"/>
</svg>
