<svg width="18" height="18" viewBox="0 0 18 18" fill="none" xmlns="http://www.w3.org/2000/svg">
<path d="M4.5 9C4.89782 9 5.27936 8.84196 5.56066 8.56066C5.84196 8.27936 6 7.89782 6 7.5C6 7.10218 5.84196 6.72064 5.56066 6.43934C5.27936 6.15804 4.89782 6 4.5 6C4.10218 6 3.72064 6.15804 3.43934 6.43934C3.15804 6.72064 3 7.10218 3 7.5C3 7.89782 3.15804 8.27936 3.43934 8.56066C3.72064 8.84196 4.10218 9 4.5 9Z" stroke="#0098B3" stroke-width="1.2" stroke-linecap="round" stroke-linejoin="round"/>
<path d="M4.5 3V6" stroke="#0098B3" stroke-width="1.2" stroke-linecap="round" stroke-linejoin="round"/>
<path d="M4.5 9V15" stroke="#0098B3" stroke-width="1.2" stroke-linecap="round" stroke-linejoin="round"/>
<path d="M9.5 13.5C9.89782 13.5 10.2794 13.342 10.5607 13.0607C10.842 12.7794 11 12.3978 11 12C11 11.6022 10.842 11.2206 10.5607 10.9393C10.2794 10.658 9.89782 10.5 9.5 10.5C9.10218 10.5 8.72064 10.658 8.43934 10.9393C8.15804 11.2206 8 11.6022 8 12C8 12.3978 8.15804 12.7794 8.43934 13.0607C8.72064 13.342 9.10218 13.5 9.5 13.5Z" stroke="#0098B3" stroke-width="1.2" stroke-linecap="round" stroke-linejoin="round"/>
<path d="M9.5 3V10.5" stroke="#0098B3" stroke-width="1.2" stroke-linecap="round" stroke-linejoin="round"/>
<path d="M9.5 13.5V15" stroke="#0098B3" stroke-width="1.2" stroke-linecap="round" stroke-linejoin="round"/>
<path d="M14.5 6.75C14.8978 6.75 15.2794 6.59196 15.5607 6.31066C15.842 6.02936 16 5.64782 16 5.25C16 4.85218 15.842 4.47064 15.5607 4.18934C15.2794 3.90804 14.8978 3.75 14.5 3.75C14.1022 3.75 13.7206 3.90804 13.4393 4.18934C13.158 4.47064 13 4.85218 13 5.25C13 5.64782 13.158 6.02936 13.4393 6.31066C13.7206 6.59196 14.1022 6.75 14.5 6.75Z" stroke="#0098B3" stroke-width="1.2" stroke-linecap="round" stroke-linejoin="round"/>
<path d="M14.5 3V3.75" stroke="#0098B3" stroke-width="1.2" stroke-linecap="round" stroke-linejoin="round"/>
<path d="M14.5 6.75V15" stroke="#0098B3" stroke-width="1.2" stroke-linecap="round" stroke-linejoin="round"/>
</svg>
