<svg width="14" height="14" viewBox="0 0 14 14" fill="none" xmlns="http://www.w3.org/2000/svg">
<path fill-rule="evenodd" clip-rule="evenodd" d="M10.78 4.841C10.6394 4.98145 10.4488 5.06034 10.25 5.06034C10.0512 5.06034 9.86063 4.98145 9.72 4.841L7.75 2.871V10.25C7.75 10.4489 7.67098 10.6397 7.53033 10.7803C7.38968 10.921 7.19891 11 7 11C6.80109 11 6.61032 10.921 6.46967 10.7803C6.32902 10.6397 6.25 10.4489 6.25 10.25V2.871L4.28 4.841C4.13783 4.97348 3.94978 5.0456 3.75548 5.04217C3.56118 5.03875 3.37579 4.96003 3.23838 4.82262C3.10097 4.68521 3.02225 4.49982 3.01883 4.30552C3.0154 4.11122 3.08752 3.92318 3.22 3.781L6.47 0.531L7 0L7.53 0.53L10.78 3.78C10.8497 3.84965 10.905 3.93235 10.9427 4.02338C10.9804 4.1144 10.9998 4.21197 10.9998 4.3105C10.9998 4.40903 10.9804 4.5066 10.9427 4.59762C10.905 4.68865 10.8497 4.77135 10.78 4.841ZM1.5 8.75C1.5 8.55109 1.42098 8.36032 1.28033 8.21967C1.13968 8.07902 0.948912 8 0.75 8C0.551088 8 0.360322 8.07902 0.21967 8.21967C0.0790177 8.36032 2.96403e-09 8.55109 0 8.75V12C0 12.5304 0.210714 13.0391 0.585786 13.4142C0.960859 13.7893 1.46957 14 2 14H12C12.5304 14 13.0391 13.7893 13.4142 13.4142C13.7893 13.0391 14 12.5304 14 12V8.75C14 8.55109 13.921 8.36032 13.7803 8.21967C13.6397 8.07902 13.4489 8 13.25 8C13.0511 8 12.8603 8.07902 12.7197 8.21967C12.579 8.36032 12.5 8.55109 12.5 8.75V12C12.5 12.1326 12.4473 12.2598 12.3536 12.3536C12.2598 12.4473 12.1326 12.5 12 12.5H2C1.86739 12.5 1.74021 12.4473 1.64645 12.3536C1.55268 12.2598 1.5 12.1326 1.5 12V8.75Z" fill="#8B98A4"/>
</svg>
