<svg width="16" height="16" viewBox="0 0 16 16" fill="none" xmlns="http://www.w3.org/2000/svg">
<path d="M8.3334 13.67C7.63274 13.6713 6.93873 13.5341 6.29126 13.2664C5.64378 12.9986 5.0556 12.6055 4.56052 12.1097C2.47983 10.0291 2.47983 6.64389 4.56052 4.56326C5.05487 4.06615 5.6429 3.67202 6.29059 3.40369C6.93828 3.13536 7.63277 2.99815 8.33384 3.00002C9.75922 3.00002 11.0993 3.55495 12.1067 4.56326C13.1146 5.57114 13.67 6.91112 13.67 8.33649C13.67 9.76187 13.115 11.1018 12.1067 12.1097C11.6115 12.6055 11.0233 12.9986 10.3757 13.2663C9.7282 13.5341 9.03413 13.6713 8.3334 13.67ZM8.33384 3.8538C7.74491 3.85212 7.1615 3.96732 6.61741 4.19271C6.07332 4.41811 5.57935 4.74922 5.16414 5.16687C4.31762 6.0134 3.85143 7.13908 3.85143 8.33649C3.85143 9.53391 4.31762 10.6592 5.16414 11.5061C6.91184 13.2538 9.75582 13.2542 11.5031 11.5061C12.3496 10.6596 12.8162 9.53391 12.8162 8.33649C12.8162 7.13908 12.35 6.01381 11.5031 5.16687C11.0879 4.74936 10.594 4.41833 10.05 4.19294C9.50598 3.96755 8.92268 3.8523 8.33384 3.8538Z" fill="#DA0000"/>
<path d="M6.52115 10.5737C6.43664 10.5739 6.35398 10.549 6.28367 10.5021C6.21335 10.4552 6.15854 10.3885 6.1262 10.3105C6.09387 10.2324 6.08546 10.1465 6.10204 10.0636C6.11862 9.98074 6.15945 9.90467 6.21934 9.84504L9.84153 6.22293C9.88116 6.18329 9.92821 6.15185 9.98 6.1304C10.0318 6.10894 10.0873 6.0979 10.1433 6.0979C10.1994 6.0979 10.2549 6.10894 10.3067 6.1304C10.3585 6.15185 10.4055 6.18329 10.4451 6.22293C10.4848 6.26256 10.5162 6.30961 10.5377 6.3614C10.5591 6.41318 10.5702 6.46868 10.5702 6.52474C10.5702 6.58079 10.5591 6.63629 10.5377 6.68807C10.5162 6.73986 10.4848 6.78691 10.4451 6.82654L6.82295 10.4487C6.78342 10.4884 6.73639 10.52 6.68458 10.5414C6.63278 10.5629 6.57722 10.5739 6.52115 10.5737Z" fill="#DA0000"/>
<path d="M10.1468 10.5731C10.0907 10.5732 10.0352 10.5621 9.9834 10.5407C9.9316 10.5192 9.88456 10.4877 9.84498 10.448L6.22276 6.82589C6.14439 6.7455 6.10085 6.63747 6.10157 6.5252C6.10229 6.41294 6.14721 6.30547 6.22659 6.22609C6.30598 6.14671 6.41345 6.1018 6.52572 6.10108C6.63799 6.10037 6.74601 6.14391 6.8264 6.22228L10.4486 9.84439C10.5085 9.904 10.5493 9.98007 10.5659 10.0629C10.5825 10.1458 10.5741 10.2317 10.5417 10.3098C10.5094 10.3879 10.4546 10.4546 10.3843 10.5015C10.314 10.5483 10.2313 10.5733 10.1468 10.5731Z" fill="#DA0000"/>
</svg>
