<svg width="200" height="50" viewBox="0 0 200 50" fill="none" xmlns="http://www.w3.org/2000/svg">
<path d="M18.2392 19.519C18.7719 18.5983 19.226 17.6256 19.7145 16.6757C20.535 15.0799 21.3389 13.4737 22.1612 11.8793C23.191 9.88193 25.2455 9.29066 27.0408 10.4238C28.0471 11.0593 28.7277 11.9455 28.9852 13.2333C29.1079 13.848 29.0247 14.4574 28.9903 15.0695C28.7856 15.382 28.7151 15.768 28.5436 16.102C26.5173 20.0609 24.4955 24.023 22.4806 27.9897C22.1727 28.5959 21.816 29.1736 21.5889 29.8298C21.429 29.9494 21.3785 30.1566 21.2896 30.3295C20.2472 32.3658 19.2105 34.406 18.1732 36.4462C18.0975 36.5956 18.0293 36.7496 17.9576 36.9016H17.9467L17.9542 36.9042C17.9341 36.9491 17.9141 36.9946 17.894 37.0394L17.8974 37.0329C17.7053 37.2902 17.5815 37.5949 17.4353 37.8841L17.4399 37.8769C17.3883 37.9036 17.3739 37.9523 17.3768 38.0114L17.3808 38.0069C17.2805 38.027 17.2369 38.1102 17.2048 38.207L17.2094 38.2011C17.1887 38.2245 17.1675 38.2486 17.1469 38.272L17.152 38.2661C17.1314 38.2895 17.1102 38.3135 17.0895 38.3369L17.0947 38.3311C17.0735 38.3551 17.0528 38.3785 17.0316 38.4026L17.0368 38.3948C17.0167 38.4195 16.9961 38.4441 16.976 38.4695C16.0746 39.3285 15.0482 39.6624 13.8843 39.4071C13.7271 39.3726 13.5752 39.309 13.4209 39.2589L13.4267 39.2641C13.3957 39.2524 13.3648 39.2414 13.3344 39.2297C13.2874 39.2128 13.2398 39.1959 13.1922 39.179L13.1904 39.1784C13.1515 39.1563 13.113 39.1342 13.074 39.1121L13.0804 39.116C12.7667 38.9126 12.4789 38.656 12.1297 38.526C11.3321 37.8152 10.929 36.8601 10.7833 35.7431C10.7197 35.2558 10.7965 34.7796 10.8499 34.3001C10.9812 34.0025 11.0534 33.6783 11.2019 33.3872C13.1291 29.6115 15.0563 25.8352 16.9754 22.0543C17.4026 21.2129 17.8648 20.3935 18.2392 19.5183V19.519Z" fill="#0999B4"/>
<path d="M10.8341 29.7661C10.1759 31.0441 9.5159 32.3209 8.86051 33.6009C8.19996 34.8913 7.54801 36.1875 6.8846 37.476C5.87829 39.4304 3.81923 40.0464 2.06923 38.9489C1.29401 38.4629 0.652378 37.8463 0.300888 36.9068C-0.179616 35.6216 -0.0741123 34.3838 0.542286 33.1792C2.17531 29.9909 3.79859 26.7967 5.42531 23.6045C7.3909 19.7476 9.38402 15.9083 11.3101 12.026C12.3347 9.95985 14.5623 9.21524 16.3989 10.4926C17.6724 11.3789 18.3313 12.5952 18.2865 14.2885C18.2808 14.5146 18.2441 14.7394 18.2217 14.9648C18.091 15.2884 18.0142 15.636 17.8553 15.9473C15.9889 19.604 14.1231 23.2621 12.2607 26.9215C11.7797 27.8662 11.3095 28.8181 10.8347 29.7661H10.8341Z" fill="#0999B4"/>
<path d="M28.9896 23.3366C30.0641 23.3782 30.997 23.8356 31.7872 24.6374C32.9901 25.8583 33.2814 27.8751 32.4804 29.465C31.1243 32.1575 29.7585 34.8436 28.376 37.5186C27.3726 39.4607 25.2877 40.0357 23.5503 38.9286C22.5377 38.2834 21.8434 37.3978 21.5853 36.0957C21.4638 35.481 21.5503 34.8715 21.5819 34.2595C21.7877 33.9716 21.8422 33.6013 22.0039 33.2862C23.3611 30.6436 24.7057 27.9927 26.0572 25.3469C26.5005 24.4788 27.1455 23.8908 27.9867 23.5653C28.3147 23.4386 28.6593 23.436 28.989 23.3359L28.9896 23.3366Z" fill="#0999B4"/>
<path d="M28.9894 23.3396C28.6597 23.4397 28.3151 23.4423 27.9871 23.569C27.1465 23.8945 26.5014 24.4825 26.0576 25.3506C24.7061 27.997 23.3609 30.6473 22.0043 33.2899C21.8426 33.605 21.7881 33.976 21.5823 34.2632C21.5846 32.7857 21.5863 31.3081 21.5886 29.8306C21.8156 29.1737 22.1723 28.5961 22.4802 27.9905C24.4951 24.0238 26.5169 20.0623 28.5433 16.1028C28.7142 15.7688 28.7847 15.3828 28.99 15.0703C28.99 17.8265 28.99 20.5834 28.99 23.3396H28.9894Z" fill="#464646"/>
<path d="M10.8338 29.7661C11.3092 28.8174 11.7794 27.8662 12.2599 26.9215C14.1228 23.2621 15.9881 19.604 17.8545 15.9473C18.0133 15.636 18.0907 15.2884 18.2209 14.9648C18.2237 16.3209 18.2266 17.6775 18.23 19.0336C18.23 19.1947 18.2358 19.3565 18.2386 19.5176C17.8642 20.3928 17.4021 21.2122 16.9749 22.0536C15.0557 25.8345 13.1286 29.6108 11.2014 33.3865C11.0529 33.6769 10.9806 34.0018 10.8493 34.2994C10.8441 32.788 10.8384 31.2774 10.8333 29.7661H10.8338Z" fill="#464646"/>
<path d="M61.1662 24.0808C60.5639 25.5301 59.9605 26.9804 59.3583 28.4297C58.3872 30.7665 57.4094 33.1011 56.453 35.4435C56.3188 35.7717 56.1587 35.9093 55.7978 35.8879C55.1437 35.8484 54.3655 36.0684 53.867 35.7819C53.364 35.4932 53.2907 34.6541 53.0392 34.0518C51.688 30.8172 50.3459 27.5782 49.0005 24.3413C48.9531 24.2274 48.9001 24.1146 48.7557 24.012V24.5917C48.7557 28.1601 48.7467 31.7274 48.7659 35.2958C48.7681 35.7548 48.6666 35.9138 48.185 35.8924C47.2659 35.8518 46.3445 35.8676 45.4242 35.8868C45.0768 35.8935 44.9302 35.8214 44.9302 35.4278C44.9426 29.7751 44.9426 24.1225 44.9302 18.4699C44.9302 18.047 45.0948 17.9748 45.4614 17.9782C46.87 17.9929 48.2787 17.9974 49.6873 17.976C50.0809 17.9692 50.2794 18.0809 50.4339 18.4632C51.8843 22.062 53.3583 25.653 54.8267 29.2451C54.8876 29.3928 54.9012 29.5721 55.1222 29.6906C55.3692 29.0962 55.614 28.5176 55.8508 27.9357C57.1399 24.7767 58.4324 21.6188 59.7102 18.4553C59.8489 18.1124 60.0113 17.9681 60.4038 17.9748C61.8305 18.0019 63.2583 17.9951 64.6861 17.9793C65.0436 17.976 65.1812 18.0718 65.1801 18.453C65.1699 24.1056 65.1699 29.7582 65.1801 35.4108C65.1801 35.774 65.082 35.9003 64.703 35.8902C63.7455 35.8642 62.7868 35.8586 61.8293 35.8924C61.394 35.9082 61.297 35.7616 61.2993 35.3499C61.3139 31.8007 61.3083 28.2515 61.3083 24.7022C61.3083 24.5015 61.3083 24.2996 61.3083 24.0989L61.1662 24.0819V24.0808Z" fill="#0999B4"/>
<path d="M162.657 35.8919C161.38 35.8919 160.102 35.8704 158.827 35.9043C158.387 35.9155 158.298 35.7768 158.315 35.3708C158.347 34.5836 158.353 33.793 158.315 33.0058C158.291 32.5186 158.397 32.346 158.936 32.355C161.208 32.39 163.48 32.3674 165.753 32.3719C166.136 32.3719 166.497 32.3415 166.546 31.8644C166.593 31.4009 166.26 31.261 165.885 31.1821C165.811 31.1663 165.739 31.1483 165.666 31.1325C164.109 30.7964 162.552 30.4682 160.998 30.1208C158.84 29.6392 157.614 28.0998 157.777 26.1002C157.931 24.1987 159.598 22.6412 161.681 22.5904C164.14 22.5295 166.601 22.5724 169.061 22.5588C169.335 22.5577 169.411 22.6423 169.407 22.9085C169.392 23.8096 169.381 24.7118 169.411 25.6118C169.424 25.9953 169.293 26.0697 168.938 26.0663C166.891 26.0506 164.844 26.0584 162.797 26.0584C162.628 26.0584 162.458 26.0539 162.29 26.0652C161.97 26.0866 161.691 26.1611 161.67 26.566C161.647 26.9754 161.883 27.1186 162.24 27.1908C163.874 27.5178 165.508 27.8438 167.137 28.1923C169.31 28.6581 170.504 30.1705 170.373 32.2592C170.255 34.1584 168.605 35.7464 166.542 35.8524C165.251 35.9189 163.953 35.8648 162.657 35.8648V35.8919Z" fill="#464646"/>
<path d="M117.852 27.638C117.683 27.638 117.513 27.6245 117.346 27.6403C116.573 27.7125 115.995 27.6031 115.517 26.8001C114.893 25.7523 113.322 25.4264 112.01 25.8324C110.753 26.2215 109.834 27.408 109.731 28.7636C109.623 30.1892 109.995 31.4196 111.233 32.2463C112.821 33.3076 114.964 32.7775 115.901 31.1049C116.049 30.8399 116.214 30.7869 116.479 30.7903C117.417 30.8016 118.358 30.823 119.295 30.7835C119.817 30.761 119.847 30.9685 119.731 31.3768C119.05 33.7711 117.535 35.3624 115.135 36.0312C112.069 36.885 109.075 35.9049 107.348 33.5173C104.993 30.2602 105.665 24.0787 110.667 22.5471C113.508 21.6776 116.174 22.1073 118.325 24.373C119.065 25.1523 119.495 26.1076 119.754 27.1441C119.835 27.4677 119.811 27.6798 119.373 27.6482C118.868 27.6121 118.359 27.6403 117.852 27.6403V27.638Z" fill="#0999B4"/>
<path d="M195.412 29.1548C195.412 27.1293 195.426 25.1037 195.401 23.0782C195.395 22.6462 195.524 22.5413 195.937 22.556C196.817 22.5876 197.7 22.5774 198.581 22.5594C198.902 22.5526 199.045 22.6124 199.044 22.9834C199.03 27.1473 199.032 31.3112 199.041 35.4751C199.041 35.801 198.93 35.8901 198.618 35.8856C197.699 35.8698 196.779 35.8608 195.861 35.889C195.468 35.9014 195.403 35.7446 195.405 35.4007C195.418 33.3187 195.412 31.2368 195.412 29.1548Z" fill="#0999B4"/>
<path d="M104.145 29.2184C104.145 31.2654 104.133 33.3124 104.155 35.3582C104.16 35.7868 104.03 35.9041 103.614 35.8906C102.751 35.8601 101.886 35.8691 101.022 35.8872C100.689 35.8939 100.562 35.8048 100.563 35.4484C100.573 31.2981 100.573 27.1489 100.563 22.9985C100.563 22.6466 100.68 22.5519 101.016 22.5598C101.898 22.5801 102.783 22.588 103.664 22.5575C104.082 22.5429 104.155 22.7064 104.153 23.0786C104.137 25.1256 104.146 27.1726 104.146 29.2184H104.145Z" fill="#0999B4"/>
<path d="M172.4 33.9003C172.4 33.3567 172.411 32.812 172.396 32.2695C172.387 31.9785 172.489 31.8737 172.784 31.877C173.815 31.8894 174.846 31.8894 175.878 31.877C176.169 31.8737 176.272 31.974 176.268 32.2661C176.256 33.3533 176.257 34.4417 176.268 35.5289C176.271 35.7973 176.174 35.8875 175.909 35.8853C174.859 35.8751 173.808 35.8717 172.758 35.8864C172.436 35.8909 172.39 35.7387 172.397 35.4748C172.409 34.9503 172.4 34.4248 172.4 33.8992V33.9003Z" fill="#0999B4"/>
<path d="M199.035 18.8127C199.035 19.3563 199.019 19.8999 199.04 20.4413C199.053 20.7672 198.973 20.9093 198.609 20.9003C197.673 20.8766 196.736 20.8845 195.8 20.8969C195.519 20.9003 195.402 20.8281 195.405 20.5225C195.42 19.3619 195.42 18.2003 195.405 17.0398C195.402 16.7364 195.522 16.6586 195.802 16.6619C196.738 16.6732 197.676 16.6811 198.612 16.6586C198.981 16.6495 199.049 16.8074 199.039 17.1266C199.021 17.6883 199.034 18.2499 199.034 18.8116L199.035 18.8127Z" fill="#0999B4"/>
<path d="M100.569 23.0935C100.569 22.5488 100.584 22.0041 100.564 21.4616C100.551 21.1289 100.653 20.9924 101.007 21.0003C101.908 21.0195 102.809 21.0206 103.709 21.0003C104.067 20.9924 104.154 21.1357 104.149 21.465C104.134 22.5725 104.133 23.68 104.149 24.7864C104.155 25.1236 104.056 25.2477 103.705 25.2398C102.805 25.2195 101.903 25.2183 101.003 25.2398C100.648 25.2477 100.549 25.1168 100.562 24.783C100.583 24.2214 100.567 23.6575 100.567 23.0947L100.569 23.0935Z" fill="#0999B4"/>
<path d="M113.286 11.582C113.973 11.8076 114.539 12.252 115.156 12.6061C114.425 12.4606 113.848 12.0365 113.286 11.582Z" fill="#464646"/>
<path d="M123.72 10.4638C124.008 9.96189 124.252 9.43294 124.629 8.98633C124.484 9.57505 124.205 10.0826 123.72 10.4638Z" fill="#464646"/>
<path d="M123.267 11.0271C123.329 10.859 123.415 10.7135 123.613 10.6797C123.534 10.8319 123.44 10.9695 123.267 11.0271Z" fill="#464646"/>
<path d="M115.375 12.7129C115.468 12.7422 115.562 12.7715 115.654 12.8009C115.561 12.7715 115.468 12.7422 115.375 12.7129Z" fill="#464646"/>
<path d="M115.142 12.5957C115.219 12.6342 115.295 12.6727 115.372 12.7112C115.288 12.6863 115.167 12.7372 115.142 12.5957Z" fill="#464646"/>
<path d="M123.605 10.6874C123.6 10.5844 123.628 10.4995 123.73 10.4531C123.785 10.5833 123.695 10.6342 123.605 10.6874Z" fill="#464646"/>
<path d="M124.623 8.99912C124.662 8.92101 124.702 8.84178 124.742 8.76367C124.733 8.85762 124.77 8.97535 124.623 8.99912Z" fill="#464646"/>
<path d="M122.817 11.4825C122.857 11.4392 122.898 11.396 122.938 11.3516C122.898 11.3948 122.857 11.4381 122.817 11.4825Z" fill="#464646"/>
<path d="M122.926 11.3655C122.968 11.3234 123.009 11.2824 123.052 11.2402C123.048 11.3199 123 11.3553 122.926 11.3655Z" fill="#464646"/>
<path d="M123.04 11.253C123.081 11.212 123.123 11.1699 123.164 11.1289C123.16 11.2075 123.119 11.2485 123.04 11.253Z" fill="#464646"/>
<path d="M123.153 11.1398C123.194 11.0988 123.236 11.0566 123.277 11.0156C123.273 11.0942 123.232 11.1352 123.153 11.1398Z" fill="#464646"/>
<path d="M124.726 8.7597C124.726 8.7597 124.748 8.75854 124.748 8.7597L124.761 8.75391L124.726 8.76086V8.7597Z" fill="#464646"/>
<path d="M97.21 22.5535C96.3664 22.5941 95.5194 22.5874 94.6758 22.5558C94.2483 22.54 94.0544 22.6415 94.1051 23.1062C94.1435 23.4648 94.113 23.8302 94.113 24.234C93.9968 24.1742 93.9562 24.1674 93.9382 24.1426C91.9476 21.4799 87.4803 21.5802 85.3115 23.9746C83.3717 26.1163 83.0119 28.6528 83.6255 31.3415C84.1679 33.7212 85.6194 35.4264 88.0363 36.0693C90.3687 36.6907 92.4145 36.1302 94.0938 34.1238C94.0938 35.0587 94.1164 35.8798 94.0859 36.6975C94.0679 37.1914 93.7442 37.479 93.2626 37.5512C92.9863 37.5929 92.701 37.5907 92.4202 37.5907C90.1476 37.5941 87.8751 37.6008 85.6025 37.585C85.21 37.5828 85.0758 37.6978 85.0871 38.0959C85.113 38.9779 85.1085 39.861 85.0882 40.7429C85.0803 41.0993 85.1785 41.2392 85.5608 41.238C88.3589 41.2245 91.1581 41.2561 93.9562 41.2222C95.9491 41.1974 97.254 40.1598 97.6307 38.3824C97.7119 38.0001 97.7468 37.6008 97.7468 37.2095C97.7547 32.5155 97.7468 27.8204 97.7603 23.1265C97.7615 22.7024 97.6791 22.5299 97.21 22.5524V22.5535ZM90.6145 32.8369C88.5326 32.8392 87.045 31.3539 87.0247 29.2505C87.0044 27.1787 88.5224 25.6246 90.5796 25.6099C92.6051 25.5964 94.1626 27.1832 94.1446 29.2437C94.1265 31.311 92.6299 32.8347 90.6145 32.8369Z" fill="#0999B4"/>
<path d="M130.685 17.5708C124.642 17.5166 121.292 22.3008 121.205 26.7568C121.109 31.6369 124.637 36.2913 130.533 36.2801C136.193 36.2699 140.093 32.4805 140.093 26.9643C140.093 21.5001 136.174 17.6204 130.686 17.5708H130.685ZM130.651 32.5211C127.424 32.5075 125.132 30.1651 125.146 26.8922C125.159 23.6395 127.492 21.3298 130.74 21.3535C133.879 21.376 136.206 23.7512 136.204 26.9282C136.203 30.1685 133.854 32.5346 130.651 32.5211Z" fill="#464646"/>
<path d="M154.544 23.834C152.508 21.8344 149.108 21.5795 146.908 23.2768C146.561 23.5452 146.264 23.8791 145.842 24.2806C145.842 23.7697 145.822 23.3682 145.847 22.9701C145.866 22.6554 145.772 22.5516 145.446 22.5595C144.507 22.581 143.567 22.5787 142.628 22.5607C142.319 22.555 142.211 22.6317 142.211 22.9622C142.22 28.9148 142.221 34.8685 142.21 40.8211C142.21 41.2012 142.363 41.2474 142.677 41.2429C143.578 41.2282 144.48 41.2181 145.381 41.2463C145.761 41.2587 145.852 41.1346 145.849 40.7715C145.834 38.7809 145.839 36.7903 145.845 34.7997C145.845 34.6057 145.778 34.3959 145.908 34.2132C145.951 34.2279 145.995 34.229 146.012 34.2505C147.912 36.8659 152.16 36.973 154.543 34.6125C157.305 31.8775 157.32 26.5588 154.545 23.8328L154.544 23.834ZM149.351 32.835C147.347 32.8249 145.84 31.2787 145.839 29.2339C145.839 27.1757 147.396 25.5967 149.409 25.6125C151.456 25.6283 152.934 27.1644 152.926 29.2666C152.919 31.3644 151.433 32.8475 149.35 32.8362L149.351 32.835Z" fill="#464646"/>
<path d="M81.4338 22.9631C81.4338 22.6891 81.3796 22.5537 81.0638 22.5594C80.1063 22.5763 79.1477 22.5763 78.1902 22.5594C77.88 22.5537 77.8067 22.68 77.818 22.9586C77.8349 23.3646 77.8225 23.7718 77.8225 24.1789C77.7695 24.2048 77.7165 24.2308 77.6623 24.2567C77.6263 24.1902 77.5981 24.1157 77.5518 24.056C75.4755 21.4112 70.9327 21.6131 68.8079 24.1834C67.0316 26.333 66.709 28.7984 67.3248 31.3969C68.2079 35.1232 71.8237 37.1612 75.268 35.9736C76.2627 35.6307 77.0748 35.0251 77.7639 34.1939C77.8214 34.6236 77.8394 35.0273 77.8157 35.4288C77.7966 35.7615 77.8924 35.8935 78.2511 35.8845C79.1714 35.8619 80.0917 35.8664 81.012 35.8822C81.3277 35.8879 81.4349 35.7909 81.4338 35.4672C81.4247 31.2977 81.4259 27.1281 81.4315 22.9597L81.4338 22.9631ZM74.2857 32.8371C72.1925 32.8371 70.7376 31.3586 70.7376 29.2338C70.7376 27.1349 72.2331 25.609 74.2902 25.6101C76.2977 25.6101 77.8202 27.162 77.8236 29.2078C77.827 31.3123 76.3405 32.8371 74.2868 32.8371H74.2857Z" fill="#0999B4"/>
<path d="M192.599 22.9416C192.599 22.6416 192.502 22.557 192.211 22.5615C191.273 22.5762 190.332 22.5807 189.394 22.5604C189.051 22.5525 188.983 22.6969 188.997 22.9946C189.016 23.3973 189.001 23.801 189.001 24.198C188.82 24.2093 188.778 24.1157 188.724 24.048C186.674 21.48 182.44 21.6875 180.322 23.8247C177.993 26.1728 177.533 30.6626 179.377 33.481C181.795 37.1769 186.791 37.0472 188.807 34.2784C188.833 34.2434 188.893 34.2333 189.001 34.178C189.001 34.6348 189.014 35.0419 188.997 35.4468C188.984 35.7412 189.048 35.8934 189.393 35.8867C190.331 35.8675 191.271 35.8709 192.21 35.8855C192.501 35.89 192.598 35.7998 192.598 35.5021C192.59 31.3145 192.59 27.1269 192.598 22.9394L192.599 22.9416ZM185.519 32.8393C183.422 32.8562 181.913 31.3765 181.901 29.2923C181.888 27.1619 183.389 25.6111 185.466 25.6123C187.479 25.6134 188.99 27.1517 188.999 29.2089C189.009 31.2965 187.545 32.8224 185.519 32.8393Z" fill="#0999B4"/>
</svg>
