<svg width="18" height="18" viewBox="0 0 18 18" fill="none" xmlns="http://www.w3.org/2000/svg">
<path fill-rule="evenodd" clip-rule="evenodd" d="M9.00005 5.68457C8.56494 5.68457 8.1341 5.77026 7.73211 5.93676C7.33013 6.10325 6.96487 6.34729 6.65721 6.65493C6.34954 6.96258 6.10548 7.3278 5.93898 7.72975C5.77247 8.13171 5.68677 8.56252 5.68677 8.99759C5.68677 9.43267 5.77247 9.86348 5.93898 10.2654C6.10548 10.6674 6.34954 11.0326 6.65721 11.3403C6.96487 11.6479 7.33013 11.8919 7.73211 12.0584C8.1341 12.2249 8.56494 12.3106 9.00005 12.3106C9.87879 12.3106 10.7215 11.9616 11.3429 11.3403C11.9643 10.7189 12.3133 9.87626 12.3133 8.99759C12.3133 8.11893 11.9643 7.27624 11.3429 6.65493C10.7215 6.03362 9.87879 5.68457 9.00005 5.68457ZM7.02008 8.99759C7.02008 8.47251 7.22868 7.96894 7.6 7.59765C7.97132 7.22637 8.47493 7.01778 9.00005 7.01778C9.52517 7.01778 10.0288 7.22637 10.4001 7.59765C10.7714 7.96894 10.98 8.47251 10.98 8.99759C10.98 9.52267 10.7714 10.0262 10.4001 10.3975C10.0288 10.7688 9.52517 10.9774 9.00005 10.9774C8.47493 10.9774 7.97132 10.7688 7.6 10.3975C7.22868 10.0262 7.02008 9.52267 7.02008 8.99759Z" fill="#777777"/>
<path fill-rule="evenodd" clip-rule="evenodd" d="M16.8739 8.56758C13.9313 1.61289 4.06874 1.61289 1.12612 8.56758L1.05279 8.74089C1.01795 8.82314 1 8.91155 1 9.00087C1 9.09019 1.01795 9.1786 1.05279 9.26084L1.12612 9.43416C4.06874 16.3888 13.9313 16.3888 16.8739 9.43416L16.9472 9.26084C16.982 9.1786 17 9.09019 17 9.00087C17 8.91155 16.982 8.82314 16.9472 8.74089L16.8739 8.56758ZM15.6086 9.00087C13.0926 14.7557 4.9074 14.7557 2.39144 9.00087C4.9074 3.24607 13.0926 3.24607 15.6086 9.00087Z" fill="#777777"/>
</svg>
