<svg width="17" height="16" viewBox="0 0 17 16" fill="none" xmlns="http://www.w3.org/2000/svg">
<path d="M8.835 13.6701C9.53573 13.671 10.2297 13.5334 10.8771 13.2653C11.5245 12.9971 12.1125 12.6036 12.6074 12.1075C13.1035 11.6127 13.497 11.0246 13.7652 10.3773C14.0333 9.72986 14.1709 9.03586 14.17 8.33512C14.1709 7.63439 14.0333 6.94039 13.7651 6.293C13.497 5.64561 13.1035 5.0576 12.6074 4.56275C12.1125 4.0666 11.5245 3.67314 10.8771 3.40497C10.2297 3.1368 9.53573 2.99922 8.835 3.00013C8.13427 2.99923 7.44027 3.13682 6.79288 3.40499C6.14549 3.67316 5.55747 4.06661 5.06262 4.56275C4.56649 5.0576 4.17303 5.64561 3.90487 6.293C3.6367 6.94039 3.49911 7.63439 3.5 8.33512C3.4991 9.03586 3.63668 9.72986 3.90485 10.3773C4.17301 11.0246 4.56648 11.6127 5.06262 12.1075C5.55747 12.6036 6.14549 12.9971 6.79288 13.2653C7.44027 13.5334 8.13427 13.671 8.835 13.6701Z" stroke="#31A93E" stroke-linejoin="round"/>
<path d="M6.70117 8.33512L8.30167 9.93562L11.5027 6.73462" stroke="#31A93E" stroke-linecap="round" stroke-linejoin="round"/>
</svg>
