<svg width="32" height="32" viewBox="0 0 32 32" fill="none" xmlns="http://www.w3.org/2000/svg">
<rect width="32" height="32" rx="16" fill="#C3ECF4"/>
<g clip-path="url(#clip0_2235_4628)">
<path d="M16 9C13.9217 9 12.2308 10.6749 12.2308 12.7333C12.2308 14.7918 13.9217 16.4667 16 16.4667C18.0783 16.4667 19.7692 14.7918 19.7692 12.7333C19.7692 10.6749 18.0783 9 16 9ZM16 15.5333C14.441 15.5333 13.1731 14.2775 13.1731 12.7333C13.1731 11.1891 14.441 9.93333 16 9.93333C17.559 9.93333 18.8269 11.1891 18.8269 12.7333C18.8269 14.2775 17.559 15.5333 16 15.5333ZM18.3982 16.9473C18.3378 16.9215 18.2726 16.9085 18.2069 16.9093C18.1411 16.9101 18.0762 16.9247 18.0165 16.952C17.3853 17.2447 16.6969 17.3964 16 17.3964C15.3031 17.3964 14.6147 17.2447 13.9835 16.952C13.9238 16.9247 13.8589 16.9101 13.7931 16.9093C13.7274 16.9085 13.6622 16.9215 13.6018 16.9473C12.4954 17.413 11.552 18.1911 10.8892 19.1845C10.2265 20.1779 9.87372 21.3426 9.875 22.5333C9.875 22.79 10.087 23 10.3462 23H21.6538C21.913 23 22.125 22.79 22.125 22.5333C22.125 20.0973 20.6644 17.904 18.3982 16.9473ZM10.8362 22.0667C11.0058 20.2607 12.1177 18.6693 13.7856 17.89C15.1943 18.478 16.8057 18.478 18.2144 17.89C19.8823 18.6693 20.9942 20.2607 21.1638 22.0667H10.8362Z" fill="#3A4243"/>
</g>
<defs>
<clipPath id="clip0_2235_4628">
<rect width="14" height="14" fill="white" transform="translate(9 9)"/>
</clipPath>
</defs>
</svg>
