<svg width="16" height="16" viewBox="0 0 16 16" fill="none" xmlns="http://www.w3.org/2000/svg">
<path d="M4.30758 8.00029V5.57272C4.31479 5.09554 4.41608 4.62447 4.60566 4.18651C4.79524 3.74855 5.06937 3.3523 5.41236 3.02046C5.75534 2.68863 6.16043 2.42773 6.60441 2.25272C7.0484 2.07771 7.52255 1.99203 7.99971 2.00058C8.47686 1.99203 8.95102 2.07771 9.395 2.25272C9.83899 2.42773 10.2441 2.68863 10.5871 3.02046C10.93 3.3523 11.2042 3.74855 11.3938 4.18651C11.5833 4.62447 11.6846 5.09554 11.6918 5.57272V8.00029M9.84577 12.8462C10.3354 12.8462 10.8049 12.6517 11.1511 12.3055C11.4973 11.9593 11.6918 11.4898 11.6918 11.0001V8.92332M9.84577 12.8462C9.84577 13.1522 9.72421 13.4457 9.50784 13.6621C9.29146 13.8784 8.99799 14 8.69198 14H7.30743C7.00143 14 6.70796 13.8784 6.49158 13.6621C6.2752 13.4457 6.15364 13.1522 6.15364 12.8462C6.15364 12.5402 6.2752 12.2467 6.49158 12.0304C6.70796 11.814 7.00143 11.6924 7.30743 11.6924H8.69198C8.99799 11.6924 9.29146 11.814 9.50784 12.0304C9.72421 12.2467 9.84577 12.5402 9.84577 12.8462ZM2.92303 6.61574H3.84606C3.96847 6.61574 4.08585 6.66437 4.17241 6.75092C4.25896 6.83747 4.30758 6.95486 4.30758 7.07726V9.84636C4.30758 9.96876 4.25896 10.0861 4.17241 10.1727C4.08585 10.2592 3.96847 10.3079 3.84606 10.3079H2.92303C2.67823 10.3079 2.44345 10.2106 2.27035 10.0375C2.09725 9.86442 2 9.62964 2 9.38484V7.53878C2 7.29397 2.09725 7.0592 2.27035 6.88609C2.44345 6.71299 2.67823 6.61574 2.92303 6.61574ZM13.0764 10.3079H12.1534C12.031 10.3079 11.9136 10.2592 11.827 10.1727C11.7405 10.0861 11.6918 9.96876 11.6918 9.84636V7.07726C11.6918 6.95486 11.7405 6.83747 11.827 6.75092C11.9136 6.66437 12.031 6.61574 12.1534 6.61574H13.0764C13.3212 6.61574 13.556 6.71299 13.7291 6.88609C13.9022 7.0592 13.9994 7.29397 13.9994 7.53878V9.38484C13.9994 9.62964 13.9022 9.86442 13.7291 10.0375C13.556 10.2106 13.3212 10.3079 13.0764 10.3079Z" stroke="#777777" stroke-linecap="round" stroke-linejoin="round"/>
</svg>
