<svg width="16" height="16" viewBox="0 0 16 16" fill="none" xmlns="http://www.w3.org/2000/svg">
<path d="M13.3336 8.78099V6.00033C13.3336 4.58584 12.7716 3.22928 11.7715 2.22909C10.7713 1.2289 9.41471 0.666992 8.00022 0.666992C6.58573 0.666992 5.22918 1.2289 4.22898 2.22909C3.22879 3.22928 2.66688 4.58584 2.66688 6.00033V8.77966C2.38794 8.8757 2.13524 9.03549 1.92888 9.24633C1.73876 9.43058 1.58797 9.65147 1.48564 9.89566C1.38332 10.1398 1.33158 10.4022 1.33355 10.667C1.33355 11.1974 1.54426 11.7061 1.91934 12.0812C2.29441 12.4563 2.80312 12.667 3.33355 12.667H4.73355C4.88656 13.4205 5.29537 14.098 5.89071 14.5846C6.48605 15.0712 7.23131 15.337 8.00022 15.337C8.76912 15.337 9.51438 15.0712 10.1097 14.5846C10.7051 14.098 11.1139 13.4205 11.2669 12.667H12.6669C13.1965 12.6644 13.7037 12.4528 14.0782 12.0783C14.4527 11.7038 14.6643 11.1966 14.6669 10.667C14.6664 10.2535 14.538 9.85024 14.2993 9.51258C14.0605 9.17493 13.7232 8.91938 13.3336 8.78099ZM8.00022 14.0003C7.5867 13.9998 7.18347 13.8714 6.84581 13.6327C6.50815 13.394 6.25261 13.0567 6.11422 12.667H9.88622C9.74783 13.0567 9.49228 13.394 9.15463 13.6327C8.81697 13.8714 8.41373 13.9998 8.00022 14.0003ZM13.1289 11.1423C13.0687 11.2036 12.9967 11.2522 12.9174 11.285C12.838 11.3179 12.7528 11.3344 12.6669 11.3337H3.33355C3.15674 11.3337 2.98717 11.2634 2.86215 11.1384C2.73712 11.0134 2.66688 10.8438 2.66688 10.667C2.66671 10.578 2.68478 10.4899 2.71998 10.4081C2.75518 10.3264 2.80677 10.2527 2.87155 10.1917C2.93175 10.1304 3.00369 10.0818 3.08307 10.049C3.16245 10.0161 3.24764 9.99954 3.33355 10.0003C3.51036 10.0003 3.67993 9.93009 3.80496 9.80506C3.92998 9.68004 4.00022 9.51047 4.00022 9.33366V6.00033C4.00022 4.93946 4.42164 3.92204 5.17179 3.1719C5.92194 2.42175 6.93935 2.00033 8.00022 2.00033C9.06108 2.00033 10.0785 2.42175 10.8286 3.1719C11.5788 3.92204 12.0002 4.93946 12.0002 6.00033V9.33366C12.0002 9.51047 12.0705 9.68004 12.1955 9.80506C12.3205 9.93009 12.4901 10.0003 12.6669 10.0003C12.8437 10.0003 13.0133 10.0706 13.1383 10.1956C13.2633 10.3206 13.3336 10.4902 13.3336 10.667C13.3337 10.756 13.3157 10.8441 13.2805 10.9259C13.2453 11.0076 13.1937 11.0813 13.1289 11.1423Z" fill="#8B98A4"/>
</svg>
