<svg width="16" height="16" viewBox="0 0 16 16" fill="none" xmlns="http://www.w3.org/2000/svg">
<g clip-path="url(#clip0_1019_14526)">
<path fill-rule="evenodd" clip-rule="evenodd" d="M8.47075 10.4703C8.34573 10.5952 8.17619 10.6655 7.99941 10.6655C7.82264 10.6655 7.6531 10.5952 7.52808 10.4703L3.75675 6.69893C3.69307 6.63743 3.64229 6.56387 3.60735 6.48253C3.57241 6.40119 3.55402 6.31371 3.55325 6.22519C3.55248 6.13667 3.56935 6.04889 3.60287 5.96696C3.63639 5.88503 3.68589 5.81059 3.74848 5.748C3.81108 5.6854 3.88551 5.6359 3.96745 5.60238C4.04938 5.56886 4.13716 5.55199 4.22568 5.55276C4.3142 5.55353 4.40168 5.57192 4.48302 5.60686C4.56435 5.6418 4.63792 5.69259 4.69941 5.75626L7.99941 9.05626L11.2994 5.75626C11.4252 5.63482 11.5936 5.56763 11.7683 5.56915C11.9431 5.57066 12.1104 5.64078 12.234 5.76438C12.3576 5.88799 12.4277 6.0552 12.4292 6.22999C12.4307 6.40479 12.3635 6.57319 12.2421 6.69893L8.47075 10.4703Z" fill="#A3A3A3"/>
</g>
<defs>
<clipPath id="clip0_1019_14526">
<rect width="16" height="16" fill="white"/>
</clipPath>
</defs>
</svg>
