<svg width="32" height="32" viewBox="0 0 32 32" fill="none" xmlns="http://www.w3.org/2000/svg">
<path d="M23 22H9.00001C8.4477 22 8 21.5523 8 21C8 20.4478 8.4477 20 9.00001 20H23C23.5523 20 24 20.4478 24 21C24 21.5523 23.5523 22 23 22ZM23 17H9.00001C8.4477 17 8 16.5523 8 16C8 15.4478 8.4477 15 9.00001 15H23C23.5523 15 24 15.4477 24 16C24 16.5523 23.5523 17 23 17ZM23 12H9.00001C8.4477 12 8 11.5523 8 11C8 10.4477 8.4477 10 9.00001 10H23C23.5523 10 24 10.4477 24 11C24 11.5523 23.5523 12 23 12Z" fill="#8B98A4"/>
</svg>
