<svg width="16" height="16" viewBox="0 0 16 16" fill="none" xmlns="http://www.w3.org/2000/svg">
<path d="M14.2999 7.29998H8.70002V1.69995C8.70002 1.31365 8.38637 1 7.99993 1C7.61363 1 7.29998 1.31365 7.29998 1.69995V7.29998H1.69995C1.31365 7.29998 1 7.61363 1 7.99993C1 8.38637 1.31365 8.70002 1.69995 8.70002H7.29998V14.2999C7.29998 14.6863 7.61363 15 7.99993 15C8.38637 15 8.70002 14.6863 8.70002 14.2999V8.70002H14.2999C14.6863 8.70002 15 8.38637 15 7.99993C15 7.61363 14.6863 7.29998 14.2999 7.29998Z" fill="white"/>
</svg>
